<svg width="758" height="183" viewBox="0 0 758 183" style="fill:none;stroke:none;fill-rule:evenodd;clip-rule:evenodd;stroke-linecap:round;stroke-linejoin:round;stroke-miterlimit:1.5;" version="1.1" xmlns="http://www.w3.org/2000/svg" xmlns:xlink="http://www.w3.org/1999/xlink"><g id="blend" style="mix-blend-mode:multiply"><g id="g-root--1.cu_sy_zitlo6uk5yiq-fill" data-item-order="-65027" data-item-id="-1.cu_sy_zitlo6uk5yiq" data-item-class="ScenePart Fill Stroke ColorFillGray ColorStrokeGray" data-item-index="-1" data-renderer-id="0" transform="translate(194, -9)"><g id="-1.cu_sy_zitlo6uk5yiq-fill" stroke="none" fill="#fafafa"><g xmlns="http://www.w3.org/2000/svg"><path d="M 125 34L 101 10L 10 166L 34 190L 125 34ZM 125 34L 34 190L 216 190L 125 34Z"></path></g></g></g><g id="g-root-0.line-start_sy_qn6lfauk5zbf-fill" data-item-order="-65024" data-item-id="0.line-start_sy_qn6lfauk5zbf" data-item-class="ScenePart Indexed_0 Stroke" data-item-index="0" data-renderer-id="0" transform="translate(153, 93)"></g><g id="g-root-4.cu_sy_8wj20muk5yiv-fill" data-item-order="-65022" data-item-id="4.cu_sy_8wj20muk5yiv" data-item-class="ScenePart Indexed Stroke" data-item-index="2" data-renderer-id="0" transform="translate(263.5, 93)"></g><g id="g-root-3.cu_sy_dcck52uk5xqm-fill" data-item-order="-65020" data-item-id="3.cu_sy_dcck52uk5xqm" data-item-class="ScenePart Indexed Indexed_1 Stroke" data-item-index="1" data-renderer-id="0" transform="translate(263.5, 46.493988037109375)"></g><g id="g-root-six_8znfg6uka5fu-fill" data-item-order="0" data-item-id="six_8znfg6uka5fu" data-item-class="Icon Stroke SceneTarget Indexed Indexed_1" data-item-index="1" data-renderer-id="0" transform="translate(531, 27)"></g><g id="g-root-tx_response_1q6zkl2uk5xj6-fill" data-item-order="0" data-item-id="tx_response_1q6zkl2uk5xj6" data-item-class="Label Stroke SceneTarget Indexed Indexed_1" data-item-index="1" data-renderer-id="0" transform="translate(591, 39)"></g><g id="g-root-tx_slowsqla_8wj20muk5yiw-fill" data-item-order="0" data-item-id="tx_slowsqla_8wj20muk5yiw" data-item-class="Label Stroke SceneTarget SceneStart" data-item-index="none" data-renderer-id="0" transform="translate(-9, 69)"></g><g id="g-root-sear_1hbckc6uka4u8-fill" data-item-order="0" data-item-id="sear_1hbckc6uka4u8" data-item-class="Icon Stroke SceneTarget SceneStart" data-item-index="none" data-renderer-id="0" transform="translate(99, 69.00003051757812)"></g><g id="g-root-doll_1430feeuka6tp-fill" data-item-order="0" data-item-id="doll_1430feeuka6tp" data-item-class="Icon Stroke SceneTarget Indexed" data-item-index="2" data-renderer-id="0" transform="translate(531, 111)"></g><g id="g-root-tx_executio_1umt2piuk5wqx-fill" data-item-order="0" data-item-id="tx_executio_1umt2piuk5wqx" data-item-class="Label Stroke SceneTarget Indexed" data-item-index="2" data-renderer-id="0" transform="translate(591, 123.00003051757812)"></g><g id="g-root--1.cu_sy_zitlo6uk5yiq-stroke" data-item-order="-65027" data-item-id="-1.cu_sy_zitlo6uk5yiq" data-item-class="ScenePart Fill Stroke ColorFillGray ColorStrokeGray" data-item-index="-1" data-renderer-id="0" transform="translate(194, -9)"><g id="-1.cu_sy_zitlo6uk5yiq-stroke" fill="none" stroke-linecap="round" stroke-linejoin="round" stroke-miterlimit="1.5" stroke="#bbbbbb" stroke-width="2"><g xmlns="http://www.w3.org/2000/svg"><path d="M 125 34L 101 10L 10 166L 34 190L 125 34ZM 125 34L 34 190L 216 190L 125 34Z"></path></g></g></g><g id="g-root-0.line-start_sy_qn6lfauk5zbf-stroke" data-item-order="-65024" data-item-id="0.line-start_sy_qn6lfauk5zbf" data-item-class="ScenePart Indexed_0 Stroke" data-item-index="0" data-renderer-id="0" transform="translate(153, 93)"><g id="0.line-start_sy_qn6lfauk5zbf-stroke" fill="none" stroke-linecap="round" stroke-linejoin="round" stroke-miterlimit="1.5" stroke="#484848" stroke-width="2"><g xmlns="http://www.w3.org/2000/svg"><path d="M 10 10L 120.5 10"></path></g></g></g><g id="g-root-4.cu_sy_8wj20muk5yiv-stroke" data-item-order="-65022" data-item-id="4.cu_sy_8wj20muk5yiv" data-item-class="ScenePart Indexed Stroke" data-item-index="2" data-renderer-id="0" transform="translate(263.5, 93)"><g id="4.cu_sy_8wj20muk5yiv-stroke" fill="none" stroke-linecap="round" stroke-linejoin="round" stroke-miterlimit="1.5" stroke="#da5da8" stroke-width="2"><g xmlns="http://www.w3.org/2000/svg"><path d="M 259.5 52L 104.5 16L 10 10M 254.997 44.757L 259.555 51.89L 252.423 56.448"></path></g></g></g><g id="g-root-3.cu_sy_dcck52uk5xqm-stroke" data-item-order="-65020" data-item-id="3.cu_sy_dcck52uk5xqm" data-item-class="ScenePart Indexed Indexed_1 Stroke" data-item-index="1" data-renderer-id="0" transform="translate(263.5, 46.493988037109375)"><g id="3.cu_sy_dcck52uk5xqm-stroke" fill="none" stroke-linecap="round" stroke-linejoin="round" stroke-miterlimit="1.5" stroke="#e15e5a" stroke-width="2"><g xmlns="http://www.w3.org/2000/svg"><path d="M 10 56.506L 97.5 50.506L 259.5 14.506M 252.304 10L 259.463 14.516L 254.947 21.675"></path></g></g></g><g id="g-root-six_8znfg6uka5fu-stroke" data-item-order="0" data-item-id="six_8znfg6uka5fu" data-item-class="Icon Stroke SceneTarget Indexed Indexed_1" data-item-index="1" data-renderer-id="0" transform="translate(531, 27)"><g id="six_8znfg6uka5fu-stroke" fill="none" stroke-linecap="round" stroke-linejoin="round" stroke-miterlimit="1.5" stroke="#e15e5a" stroke-width="2"><g xmlns="http://www.w3.org/2000/svg"><path d="M 11 34C 11 46.703 21.297 57 34 57C 46.703 57 57 46.703 57 34C 57 21.297 46.703 11 34 11C 21.297 11 11 21.297 11 34M 47 34L 34 34L 34 42M 57 34L 52 34M 55.248 42.806L 50.628 40.892M 50.256 50.272L 46.722 46.734M 42.786 55.256L 40.876 50.634M 33.978 57L 33.984 52"></path></g></g></g><g id="g-root-tx_response_1q6zkl2uk5xj6-stroke" data-item-order="0" data-item-id="tx_response_1q6zkl2uk5xj6" data-item-class="Label Stroke SceneTarget Indexed Indexed_1" data-item-index="1" data-renderer-id="0" transform="translate(591, 39)"><g id="tx_response_1q6zkl2uk5xj6-stroke" fill="none" stroke-linecap="square" stroke-linejoin="miter" stroke-miterlimit="4" stroke="#484848" stroke-width="2"><g xmlns="http://www.w3.org/2000/svg"><path d="M 14.725 28.133L 14.725 14.945L 19.521 14.93C 20.591 14.967 22.912 15.729 22.912 18.477C 22.912 21.224 20.591 22.061 19.521 22.137L 15.274 22.15M 23.139 28.249L 20.028 22.514M 33.947 27.218C 32.974 28.155 31.949 28.339 30.764 28.339C 28.695 28.339 26.831 27.028 26.831 23.456C 26.831 19.884 28.641 18.573 30.71 18.573C 32.778 18.573 34.382 19.63 34.382 23.201L 27.162 23.201M 44.588 20.381C 44.292 19.404 43.138 18.584 41.528 18.584C 39.64 18.584 38.42 19.447 38.329 20.751C 38.224 22.246 39.458 22.822 41.388 23.339C 43.082 23.797 45.025 24.277 44.871 26.122C 44.772 27.31 43.795 28.346 41.438 28.346C 39.532 28.346 38.455 27.53 38.12 26.424M 49.233 18.774L 49.233 32.393M 49.599 20.124C 50.482 19.027 51.663 18.558 52.972 18.558C 55.153 18.558 56.732 19.904 56.732 23.476C 56.732 27.047 55.048 28.323 52.866 28.323C 51.595 28.323 50.309 27.783 49.599 26.719M 68.807 23.457C 68.807 26.522 66.936 28.34 64.628 28.34C 62.32 28.34 60.449 26.522 60.449 23.457C 60.449 20.392 62.32 18.573 64.628 18.573C 66.936 18.573 68.807 20.392 68.807 23.457ZM 72.999 18.78L 72.999 28.128M 79.833 28.128L 79.833 22.074C 79.833 21.362 79.929 18.79 77.546 18.587C 75.788 18.437 74.099 19.562 73.323 20.956M 90.768 20.381C 90.472 19.404 89.318 18.584 87.708 18.584C 85.82 18.584 84.6 19.447 84.509 20.751C 84.404 22.246 85.638 22.822 87.568 23.339C 89.262 23.797 91.205 24.277 91.051 26.122C 90.952 27.31 89.975 28.346 87.618 28.346C 85.712 28.346 84.635 27.53 84.3 26.424M 102.067 27.218C 101.094 28.155 100.069 28.339 98.884 28.339C 96.815 28.339 94.951 27.028 94.951 23.456C 94.951 19.884 96.761 18.573 98.83 18.573C 100.898 18.573 102.502 19.63 102.502 23.201L 95.282 23.201M 121.343 14.945C 118.08 14.945 114.817 14.95 111.554 14.95M 116.44 28.124L 116.44 15.456M 125.278 14.971L 125.302 14.971M 125.262 18.804L 125.262 28.145M 130.21 18.814L 130.21 28.162M 137.044 28.162L 137.033 21.47C 136.969 20.526 136.602 19.078 134.728 18.649C 132.788 18.205 131.308 19.248 130.572 20.595M 143.879 28.162L 143.879 22.108C 143.879 21.396 143.994 19.206 141.563 18.649C 139.534 18.184 137.999 19.347 137.299 20.783M 155.307 27.218C 154.334 28.155 153.309 28.339 152.124 28.339C 150.055 28.339 148.191 27.028 148.191 23.456C 148.191 19.884 150.001 18.573 152.07 18.573C 154.138 18.573 155.742 19.63 155.742 23.201L 148.522 23.201"></path></g></g></g><g id="g-root-tx_slowsqla_8wj20muk5yiw-stroke" data-item-order="0" data-item-id="tx_slowsqla_8wj20muk5yiw" data-item-class="Label Stroke SceneTarget SceneStart" data-item-index="none" data-renderer-id="0" transform="translate(-9, 69)"><g id="tx_slowsqla_8wj20muk5yiw-stroke" fill="none" stroke-linecap="square" stroke-linejoin="miter" stroke-miterlimit="4" stroke="#484848" stroke-width="2"><g xmlns="http://www.w3.org/2000/svg"><path d="M 25.036 17.457C 24.605 15.893 22.985 14.732 20.896 14.732C 18.448 14.732 16.747 15.931 16.747 17.754C 16.747 19.724 18.211 20.685 20.715 21.406C 22.912 22.045 25.15 22.813 25.15 25.288C 25.15 26.951 23.837 28.346 20.78 28.346C 18.308 28.346 16.727 27.106 16.363 25.483M 29.446 14.125L 29.446 28.126M 42.157 23.457C 42.157 26.522 40.286 28.34 37.978 28.34C 35.67 28.34 33.799 26.522 33.799 23.457C 33.799 20.392 35.67 18.573 37.978 18.573C 40.286 18.573 42.157 20.392 42.157 23.457ZM 45.548 18.69L 48.263 28.119L 48.641 28.119L 51.583 18.782L 52.018 18.782L 55.024 28.119L 55.374 28.119L 58.091 18.69M 76.326 17.457C 75.895 15.893 74.275 14.732 72.186 14.732C 69.738 14.732 68.037 15.931 68.037 17.754C 68.037 19.724 69.501 20.685 72.006 21.406C 74.202 22.045 76.439 22.813 76.439 25.288C 76.439 26.951 75.127 28.346 72.07 28.346C 69.598 28.346 68.017 27.106 67.653 25.483M 90.052 30.37L 87.361 28.326M 85.368 28.326C 82.359 28.326 80.313 26.143 80.313 21.438C 80.313 16.733 82.529 14.721 85.368 14.721C 88.207 14.721 90.423 16.733 90.423 21.438C 90.423 26.143 88.377 28.326 85.368 28.326ZM 102.597 28.145L 95.448 28.145L 95.406 21.3L 95.406 14.938M 27.144 52.145L 32.092 38.973L 32.68 38.973L 37.644 52.145M 28.961 48.294L 35.82 48.294M 41.619 42.78L 41.619 52.128M 48.453 52.128L 48.453 46.074C 48.453 45.362 48.549 42.79 46.166 42.587C 44.408 42.437 42.719 43.562 41.943 44.956M 53.348 44.246C 53.712 43.28 55.128 42.567 56.468 42.567C 58.322 42.567 59.824 43.88 59.824 45.499L 59.83 46.957L 59.83 49.571C 59.83 50.614 59.805 51.353 60.107 52.278M 59.45 46.957L 56.722 46.957C 54.219 46.957 52.919 48.343 52.919 49.837C 52.919 51.332 54.157 52.341 55.773 52.341C 57.755 52.341 59.381 50.888 59.781 49.732M 64.796 38.125L 64.796 52.126M 69.059 56.437C 70.613 56.683 71.535 55.233 71.892 54.286L 75.743 42.691M 68.883 42.691L 72.224 52.1M 85.828 44.381C 85.532 43.404 84.378 42.584 82.768 42.584C 80.88 42.584 79.66 43.447 79.569 44.751C 79.464 46.246 80.698 46.822 82.628 47.339C 84.322 47.797 86.265 48.277 86.111 50.122C 86.012 51.311 85.035 52.346 82.678 52.346C 80.772 52.346 79.695 51.53 79.36 50.424M 90.658 38.971L 90.682 38.971M 90.642 42.804L 90.642 52.145M 101.728 44.381C 101.432 43.404 100.278 42.584 98.668 42.584C 96.78 42.584 95.56 43.447 95.469 44.751C 95.364 46.246 96.598 46.822 98.528 47.339C 100.222 47.797 102.165 48.277 102.011 50.122C 101.912 51.311 100.935 52.346 98.578 52.346C 96.672 52.346 95.595 51.53 95.26 50.424"></path></g></g></g><g id="g-root-sear_1hbckc6uka4u8-stroke" data-item-order="0" data-item-id="sear_1hbckc6uka4u8" data-item-class="Icon Stroke SceneTarget SceneStart" data-item-index="none" data-renderer-id="0" transform="translate(99, 69.00003051757812)"><g id="sear_1hbckc6uka4u8-stroke" fill="none" stroke-linecap="round" stroke-linejoin="round" stroke-miterlimit="1.5" stroke="#484848" stroke-width="2"><g xmlns="http://www.w3.org/2000/svg"><path d="M 11.714 30.297C 11.712 40.562 20.033 48.884 30.297 48.884C 40.562 48.884 48.882 40.562 48.88 30.297C 48.882 20.033 40.562 11.711 30.297 11.711C 20.033 11.711 11.712 20.033 11.714 30.297M 56.286 56.286L 43.429 43.429"></path></g></g></g><g id="g-root-doll_1430feeuka6tp-stroke" data-item-order="0" data-item-id="doll_1430feeuka6tp" data-item-class="Icon Stroke SceneTarget Indexed" data-item-index="2" data-renderer-id="0" transform="translate(531, 111)"><g id="doll_1430feeuka6tp-stroke" fill="none" stroke-linecap="round" stroke-linejoin="round" stroke-miterlimit="1.5" stroke="#da5da8" stroke-width="2"><g xmlns="http://www.w3.org/2000/svg"><path d="M 25.429 46L 38.629 46C 41.549 46.012 43.998 43.8 44.282 40.894C 44.567 37.988 42.593 35.343 39.726 34.789L 28.274 33.211C 25.407 32.657 23.433 30.012 23.718 27.106C 24.002 24.2 26.451 21.988 29.371 22L 42.571 22M 34 56.286L 34 11.714"></path></g></g></g><g id="g-root-tx_executio_1umt2piuk5wqx-stroke" data-item-order="0" data-item-id="tx_executio_1umt2piuk5wqx" data-item-class="Label Stroke SceneTarget Indexed" data-item-index="2" data-renderer-id="0" transform="translate(591, 123.00003051757812)"><g id="tx_executio_1umt2piuk5wqx-stroke" fill="none" stroke-linecap="square" stroke-linejoin="miter" stroke-miterlimit="4" stroke="#484848" stroke-width="2"><g xmlns="http://www.w3.org/2000/svg"><path d="M 22.288 28.137L 14.724 28.142L 14.724 14.95C 15.672 14.95 20.846 14.95 22.246 14.95M 21.234 21.297L 15.188 21.297M 26.048 18.611L 29.039 23.243M 32.311 28.31L 29.214 23.514M 32.2 18.611L 25.937 28.31M 43.407 27.218C 42.434 28.155 41.409 28.339 40.224 28.339C 38.155 28.339 36.292 27.028 36.292 23.456C 36.292 19.884 38.101 18.573 40.17 18.573C 42.238 18.573 43.842 19.63 43.842 23.201L 36.622 23.201M 54.702 26.254C 54.33 27.649 52.762 28.339 51.293 28.339C 49.156 28.339 47.39 27.028 47.39 23.456C 47.39 19.884 49.259 18.573 51.397 18.573C 52.904 18.573 54.554 19.41 54.787 20.915M 65.677 28.115L 65.676 18.767M 58.842 18.767L 58.842 24.821C 58.842 25.533 58.747 28.096 61.129 28.308C 63.22 28.493 64.493 27.653 65.195 26.47M 73.449 28.326C 72.04 28.465 71.182 27.732 71.182 26.387L 71.182 16.081M 73.332 18.642L 71.568 18.642M 69.072 18.642L 70.805 18.642M 77.538 14.971L 77.562 14.971M 77.522 18.804L 77.522 28.145M 90.247 23.457C 90.247 26.522 88.376 28.34 86.068 28.34C 83.76 28.34 81.889 26.522 81.889 23.457C 81.889 20.392 83.76 18.573 86.068 18.573C 88.376 18.573 90.247 20.392 90.247 23.457ZM 94.439 18.78L 94.439 28.128M 101.273 28.128L 101.273 22.074C 101.273 21.362 101.369 18.79 98.986 18.587C 97.228 18.437 95.539 19.562 94.763 20.956M 121.307 25.13C 120.646 27.034 118.858 28.398 116.755 28.398C 114.09 28.398 111.929 26.207 111.929 23.504L 111.929 19.621C 111.929 16.918 114.09 14.727 116.755 14.727C 118.858 14.727 120.646 16.091 121.307 17.995M 133.547 23.457C 133.547 26.522 131.676 28.34 129.368 28.34C 127.06 28.34 125.189 26.522 125.189 23.457C 125.189 20.392 127.06 18.573 129.368 18.573C 131.676 18.573 133.547 20.392 133.547 23.457ZM 143.898 20.381C 143.602 19.404 142.448 18.584 140.838 18.584C 138.95 18.584 137.73 19.447 137.639 20.751C 137.534 22.246 138.768 22.822 140.698 23.339C 142.392 23.797 144.335 24.277 144.181 26.122C 144.082 27.31 143.105 28.346 140.748 28.346C 138.842 28.346 137.765 27.53 137.43 26.424M 151.519 28.326C 150.11 28.465 149.252 27.732 149.252 26.387L 149.252 16.081M 151.402 18.642L 149.638 18.642M 147.142 18.642L 148.875 18.642"></path></g></g></g></g></svg>