<svg width="673" height="422" viewBox="0 0 673 422" style="fill:none;stroke:none;fill-rule:evenodd;clip-rule:evenodd;stroke-linecap:round;stroke-linejoin:round;stroke-miterlimit:1.5;" version="1.1" xmlns="http://www.w3.org/2000/svg" xmlns:xlink="http://www.w3.org/1999/xlink"><g id="blend" style="mix-blend-mode:multiply"><g id="g-root-4.cu_sy_1upx3bts29khx-fill" data-item-order="-173638" data-item-id="4.cu_sy_1upx3bts29khx" data-item-class="ScenePart Indexed Fill Stroke" data-item-index="4" data-renderer-id="0" transform="translate(232.22900390625, 339)"><g id="4.cu_sy_1upx3bts29khx-fill" stroke="none" fill="#d5f7e8"><g xmlns="http://www.w3.org/2000/svg"><path d="M 10 82L 51.57 10L 397.979 10L 439.55 82L 10 82Z"></path></g></g></g><g id="g-root-7.cu_sy_1lua32xs29lam-fill" data-item-order="-173635" data-item-id="7.cu_sy_1lua32xs29lam" data-item-class="ScenePart Indexed Stroke ColorStrokeBlack" data-item-index="7" data-renderer-id="0" transform="translate(195, 369)"></g><g id="g-root-3.cu_sy_402e1s29n2j-fill" data-item-order="-173634" data-item-id="3.cu_sy_402e1s29n2j" data-item-class="ScenePart Indexed Fill Stroke" data-item-index="3" data-renderer-id="0" transform="translate(280.72698974609375, 255)"><g id="3.cu_sy_402e1s29n2j-fill" stroke="none" fill="#cedfff"><g xmlns="http://www.w3.org/2000/svg"><path d="M 10 82L 51.569 10L 300.985 10L 342.554 82L 10 82Z"></path></g></g></g><g id="g-root-3.cu_1_sy_402e1s29n2k-fill" data-item-order="-173631" data-item-id="3.cu_1_sy_402e1s29n2k" data-item-class="ScenePart Indexed Stroke ColorStrokeBlack" data-item-index="3" data-renderer-id="0" transform="translate(195, 285)"></g><g id="g-root-2.cu_sy_8zn2mxs29m9t-fill" data-item-order="-173630" data-item-id="2.cu_sy_8zn2mxs29m9t" data-item-class="ScenePart Indexed Fill Stroke" data-item-index="2" data-renderer-id="0" transform="translate(329.2249755859375, 171)"><g id="2.cu_sy_8zn2mxs29m9t-fill" stroke="none" fill="#fde6cf"><g xmlns="http://www.w3.org/2000/svg"><path d="M 10 82L 51.569 10L 203.99 10L 245.559 82L 10 82Z"></path></g></g></g><g id="g-root-2.cu_1_sy_8zn2mxs29m9u-fill" data-item-order="-173627" data-item-id="2.cu_1_sy_8zn2mxs29m9u" data-item-class="ScenePart Indexed Stroke ColorStrokeBlack" data-item-index="2" data-renderer-id="0" transform="translate(195, 201)"></g><g id="g-root-1.cu_sy_hva2vts29kpb-fill" data-item-order="-173626" data-item-id="1.cu_sy_hva2vts29kpb" data-item-class="ScenePart Indexed Indexed_1 Fill Stroke" data-item-index="1" data-renderer-id="0" transform="translate(377.72198486328125, 39)"><g id="1.cu_sy_hva2vts29kpb-fill" stroke="none" fill="#fff9ce"><g xmlns="http://www.w3.org/2000/svg"><path d="M 10 130L 79.282 10L 148.564 130L 10 130Z"></path></g></g></g><g id="g-root-1.cu_1_sy_dfgkrds29lhk-fill" data-item-order="-173623" data-item-id="1.cu_1_sy_dfgkrds29lhk" data-item-class="ScenePart Indexed Indexed_1 Stroke ColorStrokeBlack" data-item-index="1" data-renderer-id="0" transform="translate(195, 117)"></g><g id="g-root-tx_performa_1lua32xs29lan-fill" data-item-order="0" data-item-id="tx_performa_1lua32xs29lan" data-item-class="Label Stroke SceneTarget SceneTitle ColorStrokeBlack" data-item-index="none" data-renderer-id="0" transform="translate(195, -9)"></g><g id="g-root-tx_networkr_mccj6hs29mv7-fill" data-item-order="0" data-item-id="tx_networkr_mccj6hs29mv7" data-item-class="Label Stroke SceneTarget Indexed Indexed_1 ColorStrokeBlack" data-item-index="1" data-renderer-id="0" transform="translate(3, 111)"></g><g id="g-root-moni_1ha39cps2nls2-fill" data-item-order="0" data-item-id="moni_1ha39cps2nls2" data-item-class="Icon Stroke SceneTarget Indexed Indexed_1 InsideFill" data-item-index="1" data-renderer-id="0" transform="translate(423, 99)"></g><g id="g-root-tx_iooperat_qs61axs29m2y-fill" data-item-order="0" data-item-id="tx_iooperat_qs61axs29m2y" data-item-class="Label Stroke SceneTarget Indexed ColorStrokeBlack" data-item-index="2" data-renderer-id="0" transform="translate(39, 195)"></g><g id="g-root-1_1uuww0ps2m8sh-fill" data-item-order="0" data-item-id="1_1uuww0ps2m8sh" data-item-class="Icon Stroke SceneTarget Indexed InsideFill" data-item-index="2" data-renderer-id="0" transform="translate(423, 183)"></g><g id="g-root-tx_memoryal_143mjo9s29ki1-fill" data-item-order="0" data-item-id="tx_memoryal_143mjo9s29ki1" data-item-class="Label Stroke SceneTarget Indexed ColorStrokeBlack" data-item-index="3" data-renderer-id="0" transform="translate(-9, 279)"></g><g id="g-root-remo_2r47ts2nny9-fill" data-item-order="0" data-item-id="remo_2r47ts2nny9" data-item-class="Icon Stroke SceneTarget Indexed InsideFill" data-item-index="3" data-renderer-id="0" transform="translate(423, 267)"></g><g id="g-root-tx_calculat_1cyn2u1s29mv4-fill" data-item-order="0" data-item-id="tx_calculat_1cyn2u1s29mv4" data-item-class="Label Stroke SceneTarget Indexed ColorStrokeBlack" data-item-index="4" data-renderer-id="0" transform="translate(63, 363)"></g><g id="g-root-1_959cexs2m7eo-fill" data-item-order="0" data-item-id="1_959cexs2m7eo" data-item-class="Icon Stroke SceneTarget Indexed InsideFill" data-item-index="4" data-renderer-id="0" transform="translate(423, 351)"></g><g id="g-root-4.cu_sy_1upx3bts29khx-stroke" data-item-order="-173638" data-item-id="4.cu_sy_1upx3bts29khx" data-item-class="ScenePart Indexed Fill Stroke" data-item-index="4" data-renderer-id="0" transform="translate(232.22900390625, 339)"><g id="4.cu_sy_1upx3bts29khx-stroke" fill="none" stroke-linecap="round" stroke-linejoin="round" stroke-miterlimit="1.5" stroke="#ffffff" stroke-width="2"><g xmlns="http://www.w3.org/2000/svg"><path d="M 10 82L 51.57 10L 397.98 10L 439.549 82L 10 82Z"></path></g></g></g><g id="g-root-7.cu_sy_1lua32xs29lam-stroke" data-item-order="-173635" data-item-id="7.cu_sy_1lua32xs29lam" data-item-class="ScenePart Indexed Stroke ColorStrokeBlack" data-item-index="7" data-renderer-id="0" transform="translate(195, 369)"><g id="7.cu_sy_1lua32xs29lam-stroke" fill="none" stroke-linecap="round" stroke-linejoin="round" stroke-miterlimit="1.5" stroke="#666666" stroke-width="2"><g xmlns="http://www.w3.org/2000/svg"><path d="M 10 16L 55.994 15.996M 49.994 22L 55.994 15.996L 50.002 10"></path></g></g></g><g id="g-root-3.cu_sy_402e1s29n2j-stroke" data-item-order="-173634" data-item-id="3.cu_sy_402e1s29n2j" data-item-class="ScenePart Indexed Fill Stroke" data-item-index="3" data-renderer-id="0" transform="translate(280.72698974609375, 255)"><g id="3.cu_sy_402e1s29n2j-stroke" fill="none" stroke-linecap="round" stroke-linejoin="round" stroke-miterlimit="1.5" stroke="#ffffff" stroke-width="2"><g xmlns="http://www.w3.org/2000/svg"><path d="M 10 82L 51.569 10L 300.984 10L 342.553 82L 10 82Z"></path></g></g></g><g id="g-root-3.cu_1_sy_402e1s29n2k-stroke" data-item-order="-173631" data-item-id="3.cu_1_sy_402e1s29n2k" data-item-class="ScenePart Indexed Stroke ColorStrokeBlack" data-item-index="3" data-renderer-id="0" transform="translate(195, 285)"><g id="3.cu_1_sy_402e1s29n2k-stroke" fill="none" stroke-linecap="round" stroke-linejoin="round" stroke-miterlimit="1.5" stroke="#666666" stroke-width="2"><g xmlns="http://www.w3.org/2000/svg"><path d="M 10 16L 104.546 15.996M 98.546 22L 104.546 15.996L 98.554 10"></path></g></g></g><g id="g-root-2.cu_sy_8zn2mxs29m9t-stroke" data-item-order="-173630" data-item-id="2.cu_sy_8zn2mxs29m9t" data-item-class="ScenePart Indexed Fill Stroke" data-item-index="2" data-renderer-id="0" transform="translate(329.2249755859375, 171)"><g id="2.cu_sy_8zn2mxs29m9t-stroke" fill="none" stroke-linecap="round" stroke-linejoin="round" stroke-miterlimit="1.5" stroke="#ffffff" stroke-width="2"><g xmlns="http://www.w3.org/2000/svg"><path d="M 10 82L 51.569 10L 203.989 10L 245.559 82L 10 82Z"></path></g></g></g><g id="g-root-2.cu_1_sy_8zn2mxs29m9u-stroke" data-item-order="-173627" data-item-id="2.cu_1_sy_8zn2mxs29m9u" data-item-class="ScenePart Indexed Stroke ColorStrokeBlack" data-item-index="2" data-renderer-id="0" transform="translate(195, 201)"><g id="2.cu_1_sy_8zn2mxs29m9u-stroke" fill="none" stroke-linecap="round" stroke-linejoin="round" stroke-miterlimit="1.5" stroke="#666666" stroke-width="2"><g xmlns="http://www.w3.org/2000/svg"><path d="M 10 16L 153.007 15.996M 147.007 22L 153.007 15.996L 147.015 10"></path></g></g></g><g id="g-root-1.cu_sy_hva2vts29kpb-stroke" data-item-order="-173626" data-item-id="1.cu_sy_hva2vts29kpb" data-item-class="ScenePart Indexed Indexed_1 Fill Stroke" data-item-index="1" data-renderer-id="0" transform="translate(377.72198486328125, 39)"><g id="1.cu_sy_hva2vts29kpb-stroke" fill="none" stroke-linecap="round" stroke-linejoin="round" stroke-miterlimit="1.5" stroke="#ffffff" stroke-width="2"><g xmlns="http://www.w3.org/2000/svg"><path d="M 10 130L 79.282 10L 148.564 130L 10 130Z"></path></g></g></g><g id="g-root-1.cu_1_sy_dfgkrds29lhk-stroke" data-item-order="-173623" data-item-id="1.cu_1_sy_dfgkrds29lhk" data-item-class="ScenePart Indexed Indexed_1 Stroke ColorStrokeBlack" data-item-index="1" data-renderer-id="0" transform="translate(195, 117)"><g id="1.cu_1_sy_dfgkrds29lhk-stroke" fill="none" stroke-linecap="round" stroke-linejoin="round" stroke-miterlimit="1.5" stroke="#666666" stroke-width="2"><g xmlns="http://www.w3.org/2000/svg"><path d="M 10 16L 201.508 15.996M 195.508 22L 201.508 15.996L 195.516 10"></path></g></g></g><g id="g-root-tx_performa_1lua32xs29lan-stroke" data-item-order="0" data-item-id="tx_performa_1lua32xs29lan" data-item-class="Label Stroke SceneTarget SceneTitle ColorStrokeBlack" data-item-index="none" data-renderer-id="0" transform="translate(195, -9)"><g id="tx_performa_1lua32xs29lan-stroke" fill="none" stroke-linecap="round" stroke-linejoin="round" stroke-miterlimit="1.5" stroke="#484848" stroke-width="2"><g xmlns="http://www.w3.org/2000/svg"><path d="M 16.347 28.131C 16.365 27.192 16.219 24.755 15.627 22.855C 14.826 20.289 14.298 17.585 16.347 15.972C 18.564 14.228 24.142 15.081 23.885 18.907C 23.654 22.332 19.746 23.839 16.544 22.855M 29.254 24.307C 30.582 24.583 33.627 24.463 34.696 23.011C 36.033 21.196 34.743 18.817 31.722 19.508C 28.369 20.276 27.104 24.39 28.369 26.534C 29.392 28.267 32.115 29.038 35.536 26.534M 38.57 19.413C 38.852 20.567 39.443 24.098 39.351 28.136C 39.351 23.378 40.944 19.844 43.39 19.341M 46.899 28.129C 46.899 25.986 46.764 25.016 46.61 22.823C 46.383 19.617 46.228 14.643 50.456 13.962M 49.828 19.362C 49.162 19.33 47.739 19.425 46.999 19.853M 56.32 19.468C 55.474 19.693 53.1 20.951 53.258 24.041C 53.415 27.13 55.559 28.136 57.482 28.136C 59.478 28.136 62.035 26.697 61.83 23.333C 61.624 19.968 59.494 19.251 58.104 19.315C 56.458 19.389 55.355 20.554 54.902 21.311M 64.75 19.413C 65.032 20.567 65.623 24.098 65.531 28.136C 65.531 23.378 67.124 19.844 69.57 19.341M 87.021 28.136C 86.523 27.708 86.232 25.757 86.232 23.936C 86.232 22.314 86.542 19.203 84.937 19.093C 82.94 18.955 80.761 26.052 80.017 28.136C 78.289 26.448 78.933 19.121 76.738 19.362C 75.019 19.55 72.602 25.23 72.839 28.136C 72.586 27.22 72.596 25.117 72.839 23.634C 73.092 22.09 72.754 20.82 72.586 20.202M 95.133 19.375C 91.719 19.549 89.188 25.726 90.98 27.591C 92.773 29.238 96 26.949 96.884 21.208C 97.357 24.975 98.514 27.59 98.874 28.053M 102.863 19.359C 102.894 20.082 102.744 21.88 102.482 23.286C 102.156 25.045 102.464 27.333 103.008 28.136C 103.008 26.924 105.785 19.359 108.144 19.359C 110.43 19.359 108.289 26.343 110.43 28.136M 120.772 19.672C 120.154 19.1 116.864 19.105 114.944 21.414C 112.621 24.207 114.072 27.988 117.664 28.121C 120.043 28.209 120.941 27.078 121.25 26.741M 126.164 24.307C 127.492 24.583 130.537 24.463 131.606 23.011C 132.943 21.196 131.653 18.817 128.632 19.508C 125.279 20.276 124.014 24.39 125.279 26.534C 126.302 28.267 129.025 29.038 132.446 26.534M 145.706 17.518C 145.61 17.141 145.515 15.943 146.609 15.416C 147.981 14.755 152.073 16.162 152.336 22.068C 152.553 26.943 149.537 28.326 146.609 28.326C 143.292 28.326 142.013 24.704 142.259 22.332C 142.506 19.96 143.723 18.029 145.214 16.997M 156.506 20.179C 156.408 21.381 156.996 23.008 157.173 27.437C 157.295 30.484 156.932 33.29 156.932 33.29M 157.762 27.311C 158.589 27.856 160.631 28.578 162.548 27.728C 164.945 26.666 164.461 23.21 163.529 21.899C 162.452 20.385 160.488 18.676 156.996 19.635M 168.211 14.955C 168.44 16.514 168.195 17.296 167.756 20.909C 167.316 24.523 167.799 26.546 168.751 27.488C 169.704 28.43 171.317 28.217 171.854 27.657M 171.604 19.3C 170.945 19.294 169.316 19.566 168.068 20.259M 175.591 14.847C 176.899 15.612 175.236 16.866 175.411 14.941M 175.765 19.301C 175.71 21.527 175.633 26.583 175.765 28.136M 194.831 28.136C 194.333 27.708 194.043 25.757 194.043 23.936C 194.043 22.314 194.352 19.203 192.747 19.093C 190.75 18.955 188.571 26.052 187.827 28.136C 186.099 26.448 186.743 19.121 184.548 19.362C 182.829 19.55 180.412 25.23 180.649 28.136C 180.396 27.22 180.406 25.117 180.649 23.634C 180.902 22.09 180.564 20.82 180.396 20.202M 199.151 14.847C 200.459 15.612 198.796 16.866 198.971 14.941M 199.325 19.301C 199.27 21.527 199.193 26.583 199.325 28.136M 203.757 20.045C 205.393 19.506 208.923 18.693 210.063 20.305C 211.311 22.07 205.772 25.593 204.176 26.171C 203.599 26.381 203.291 27.607 204.437 27.99C 206.052 28.53 209.175 27.667 210.627 27.99M 218.433 19.375C 215.019 19.549 212.488 25.726 214.28 27.591C 216.073 29.238 219.3 26.949 220.184 21.208C 220.657 24.975 221.814 27.59 222.174 28.053M 225.571 14.955C 225.8 16.514 225.555 17.296 225.116 20.909C 224.676 24.523 225.159 26.546 226.111 27.488C 227.064 28.43 228.677 28.217 229.214 27.657M 228.964 19.3C 228.305 19.294 226.676 19.566 225.428 20.259M 232.951 14.847C 234.259 15.612 232.596 16.866 232.771 14.941M 233.125 19.301C 233.07 21.527 232.993 26.583 233.125 28.136M 240.59 19.468C 239.744 19.693 237.37 20.951 237.528 24.041C 237.685 27.13 239.829 28.136 241.752 28.136C 243.748 28.136 246.305 26.697 246.1 23.333C 245.894 19.968 243.764 19.251 242.374 19.315C 240.728 19.389 239.625 20.554 239.172 21.311M 250.123 19.359C 250.154 20.082 250.004 21.88 249.742 23.286C 249.416 25.045 249.724 27.333 250.268 28.136C 250.268 26.924 253.045 19.359 255.404 19.359C 257.69 19.359 255.549 26.343 257.69 28.136"></path></g></g></g><g id="g-root-tx_networkr_mccj6hs29mv7-stroke" data-item-order="0" data-item-id="tx_networkr_mccj6hs29mv7" data-item-class="Label Stroke SceneTarget Indexed Indexed_1 ColorStrokeBlack" data-item-index="1" data-renderer-id="0" transform="translate(3, 111)"><g id="tx_networkr_mccj6hs29mv7-stroke" fill="none" stroke-linecap="round" stroke-linejoin="round" stroke-miterlimit="1.5" stroke="#484848" stroke-width="2"><g xmlns="http://www.w3.org/2000/svg"><path d="M 18.363 28.163C 18.651 27.269 19.223 24.712 19.223 22.219C 19.223 19.102 18.484 15.076 19.223 14.967C 19.962 14.857 21.914 17.737 23.475 21.781C 25.037 25.83 26.216 28.326 27.666 28.163C 28.799 28.035 28.935 25.015 28.722 21.781C 28.542 19.037 28.903 16.103 29.046 15.082M 34.439 24.307C 35.767 24.583 38.812 24.463 39.881 23.011C 41.218 21.196 39.928 18.817 36.907 19.508C 33.554 20.276 32.289 24.39 33.554 26.534C 34.577 28.267 37.3 29.038 40.721 26.534M 44.266 14.955C 44.495 16.514 44.25 17.296 43.811 20.909C 43.371 24.523 43.854 26.546 44.806 27.488C 45.759 28.43 47.372 28.217 47.909 27.657M 47.659 19.3C 47 19.294 45.371 19.566 44.123 20.259M 50.748 19.233C 51.138 19.802 51.86 21.266 52.081 22.886C 52.357 24.912 52.926 28.169 53.592 28.136C 54.258 28.102 55.623 21.705 56.126 20.557C 56.63 19.409 56.971 18.38 57.946 20.827C 58.921 23.275 60.008 28.504 61.098 28.051C 61.523 27.875 62.036 25.384 62.17 23.984C 62.304 22.583 62.629 20.075 63.454 19.335M 69.955 19.468C 69.109 19.693 66.735 20.951 66.893 24.041C 67.05 27.13 69.194 28.136 71.117 28.136C 73.113 28.136 75.671 26.697 75.465 23.333C 75.259 19.968 73.129 19.251 71.739 19.315C 70.093 19.389 68.99 20.554 68.537 21.311M 78.385 19.413C 78.667 20.567 79.258 24.098 79.166 28.136C 79.166 23.378 80.759 19.844 83.205 19.341M 87.218 13.922C 87.343 15.108 87.061 18.024 86.753 19.758C 86.365 21.948 85.859 25.92 86.252 28.136M 92.937 19.322C 91.535 19.873 88.499 22.02 88.235 23.809C 87.935 25.836 91.32 27.62 93.133 28.136M 102.597 16.398C 102.74 16.668 103.502 18.382 103.611 20.82M 102.842 28.164C 102.661 26.444 102.528 25.524 103.35 21.788C 104.366 17.168 108.339 13.729 110.609 15.479C 112.878 17.229 111.564 21.334 105.025 23.588C 105.955 25.816 109.279 27.349 111.802 28.164M 116.889 24.307C 118.217 24.583 121.262 24.463 122.331 23.011C 123.668 21.196 122.378 18.817 119.357 19.508C 116.004 20.276 114.739 24.39 116.004 26.534C 117.027 28.267 119.75 29.038 123.171 26.534M 133.89 20.975C 133.751 20.533 133.319 19.542 131.894 19.392C 130.166 19.21 127.671 20.924 126.882 24.175C 126.027 27.699 129.016 28.718 130.966 27.819C 132.915 26.921 134.632 23.841 134.725 22.087C 134.108 24.916 134.262 26.042 134.355 28.78C 134.429 30.97 134.454 32.762 134.562 33.261C 134.903 33.147 135.771 32.663 136.737 31.739M 139.256 19.475C 138.983 20.342 138.594 22.125 138.71 23.654C 138.856 25.558 140.202 28.639 143.422 28.066C 146.537 27.512 146.679 22.23 146.278 19.475M 151.599 24.307C 152.927 24.583 155.972 24.463 157.041 23.011C 158.378 21.196 157.088 18.817 154.067 19.508C 150.714 20.276 149.449 24.39 150.714 26.534C 151.737 28.267 154.46 29.038 157.881 26.534M 167.376 19.411C 164.889 18.954 161.135 20.59 161.771 22.121C 162.683 24.313 169.069 23.498 168.259 26.083C 167.794 27.569 166.015 28.101 164.342 28.131C 163.179 28.152 162.352 28.131 161.483 27.615M 172.236 14.955C 172.465 16.514 172.22 17.296 171.781 20.909C 171.341 24.523 171.824 26.546 172.776 27.488C 173.729 28.43 175.342 28.217 175.879 27.657M 175.629 19.3C 174.97 19.294 173.341 19.566 172.093 20.259M 185.066 19.411C 182.579 18.954 178.825 20.59 179.461 22.121C 180.373 24.313 186.759 23.498 185.949 26.083C 185.484 27.569 183.705 28.101 182.032 28.131C 180.869 28.152 180.042 28.131 179.173 27.615"></path></g></g></g><g id="g-root-moni_1ha39cps2nls2-stroke" data-item-order="0" data-item-id="moni_1ha39cps2nls2" data-item-class="Icon Stroke SceneTarget Indexed Indexed_1 InsideFill" data-item-index="1" data-renderer-id="0" transform="translate(423, 99)"><g id="moni_1ha39cps2nls2-stroke" fill="none" stroke-linecap="round" stroke-linejoin="round" stroke-miterlimit="1.5" stroke="#e3cd09" stroke-width="2"><g xmlns="http://www.w3.org/2000/svg"><path d="M 36.862 39C 36.997 41.579 37.819 44.074 39.244 46.228L 39.724 47M 28.276 47L 28.756 46.228C 30.181 44.074 31.003 41.579 31.138 39M 25 47L 43 47M 14 33L 54 33M 52 11C 53.105 11 54 11.895 54 13L 54 37C 54 38.105 53.105 39 52 39L 16 39C 14.895 39 14 38.105 14 37L 14 13C 14 11.895 14.895 11 16 11ZM 34 51L 34 57M 18 57L 50 57"></path></g></g></g><g id="g-root-tx_iooperat_qs61axs29m2y-stroke" data-item-order="0" data-item-id="tx_iooperat_qs61axs29m2y" data-item-class="Label Stroke SceneTarget Indexed ColorStrokeBlack" data-item-index="2" data-renderer-id="0" transform="translate(39, 195)"><g id="tx_iooperat_qs61axs29m2y-stroke" fill="none" stroke-linecap="round" stroke-linejoin="round" stroke-miterlimit="1.5" stroke="#484848" stroke-width="2"><g xmlns="http://www.w3.org/2000/svg"><path d="M 16.208 15.68C 17.143 15.505 16.836 15.146 19.388 15.146M 17.97 16.548C 17.947 17.921 17.854 21.072 17.771 22.725C 17.687 24.376 17.663 26.135 17.722 26.7M 16.101 28.163C 17.204 28.059 18.087 27.851 19.371 27.851M 27.769 13.326C 27.463 13.831 25.705 17.327 24.402 21.485C 23.161 25.446 22.084 30.828 21.926 32.353M 34.921 17.518C 34.825 17.141 34.73 15.943 35.824 15.416C 37.197 14.755 41.288 16.162 41.551 22.068C 41.768 26.943 38.752 28.326 35.824 28.326C 32.507 28.326 31.228 24.704 31.474 22.332C 31.721 19.96 32.938 18.029 34.429 16.997M 55.371 17.518C 55.275 17.141 55.18 15.943 56.274 15.416C 57.646 14.755 61.738 16.162 62.001 22.068C 62.218 26.943 59.202 28.326 56.274 28.326C 52.957 28.326 51.678 24.704 51.924 22.332C 52.171 19.96 53.388 18.029 54.879 16.997M 66.171 20.179C 66.073 21.381 66.661 23.008 66.838 27.437C 66.96 30.484 66.597 33.29 66.597 33.29M 67.427 27.311C 68.254 27.856 70.296 28.578 72.213 27.728C 74.609 26.666 74.126 23.21 73.194 21.899C 72.117 20.385 70.153 18.676 66.661 19.635M 79.179 24.307C 80.507 24.583 83.552 24.463 84.621 23.011C 85.958 21.196 84.668 18.817 81.647 19.508C 78.294 20.276 77.029 24.39 78.294 26.534C 79.317 28.267 82.04 29.038 85.461 26.534M 88.495 19.413C 88.777 20.567 89.368 24.098 89.276 28.136C 89.276 23.378 90.869 19.844 93.315 19.341M 100.408 19.375C 96.994 19.549 94.463 25.726 96.255 27.591C 98.048 29.238 101.275 26.949 102.159 21.208C 102.632 24.975 103.789 27.59 104.149 28.053M 107.546 14.955C 107.775 16.514 107.53 17.296 107.091 20.909C 106.651 24.523 107.134 26.546 108.086 27.488C 109.039 28.43 110.652 28.217 111.189 27.657M 110.939 19.3C 110.28 19.294 108.651 19.566 107.403 20.259M 114.926 14.847C 116.234 15.612 114.571 16.866 114.746 14.941M 115.1 19.301C 115.045 21.527 114.968 26.583 115.1 28.136M 122.565 19.468C 121.719 19.693 119.345 20.951 119.503 24.041C 119.66 27.13 121.804 28.136 123.727 28.136C 125.723 28.136 128.281 26.697 128.075 23.333C 127.869 19.968 125.739 19.251 124.349 19.315C 122.703 19.389 121.6 20.554 121.147 21.311M 132.098 19.359C 132.129 20.082 131.979 21.88 131.717 23.286C 131.391 25.045 131.699 27.333 132.243 28.136C 132.243 26.924 135.02 19.359 137.379 19.359C 139.665 19.359 137.524 26.343 139.665 28.136M 149.066 19.411C 146.579 18.954 142.825 20.59 143.461 22.121C 144.373 24.313 150.759 23.498 149.949 26.083C 149.484 27.569 147.705 28.101 146.032 28.131C 144.869 28.152 144.042 28.131 143.173 27.615"></path></g></g></g><g id="g-root-1_1uuww0ps2m8sh-stroke" data-item-order="0" data-item-id="1_1uuww0ps2m8sh" data-item-class="Icon Stroke SceneTarget Indexed InsideFill" data-item-index="2" data-renderer-id="0" transform="translate(423, 183)"><g id="1_1uuww0ps2m8sh-stroke" fill="none" stroke-linecap="round" stroke-linejoin="round" stroke-miterlimit="1.5" stroke="#dd8433" stroke-width="2"><g xmlns="http://www.w3.org/2000/svg"><path d="M 11 41.002L 11 57.002M 41 55C 41 51.686 38.314 49 35 49L 27.5 49C 27.5 45.686 24.814 43 21.5 43L 11 43L 11 55ZM 21.5 49.002L 29 49.002M 42.626 23.94C 42.626 25.527 43.913 26.814 45.5 26.814C 47.087 26.814 48.374 25.527 48.374 23.94C 48.374 22.353 47.087 21.066 45.5 21.066C 43.913 21.066 42.626 22.353 42.626 23.94ZM 47.942 12.818L 48.8 15.6C 49.09 16.558 50.072 17.129 51.048 16.906L 53.872 16.25C 54.97 16.003 56.101 16.499 56.661 17.475C 57.222 18.451 57.081 19.678 56.314 20.502L 54.338 22.632C 53.662 23.367 53.662 24.497 54.338 25.232L 56.314 27.362C 57.081 28.186 57.222 29.413 56.661 30.389C 56.101 31.365 54.97 31.861 53.872 31.614L 51.048 30.96C 50.072 30.735 49.088 31.307 48.8 32.266L 47.952 35.05C 47.628 36.128 46.636 36.866 45.51 36.866C 44.384 36.866 43.392 36.128 43.068 35.05L 42.22 32.266C 41.932 31.307 40.948 30.735 39.972 30.96L 37.148 31.614C 36.05 31.861 34.919 31.365 34.359 30.389C 33.798 29.413 33.939 28.186 34.706 27.362L 36.682 25.232C 37.358 24.497 37.358 23.367 36.682 22.632L 34.706 20.502C 33.939 19.678 33.798 18.451 34.359 17.475C 34.919 16.499 36.05 16.003 37.148 16.25L 39.972 16.906C 40.945 17.123 41.92 16.553 42.21 15.6L 43.058 12.816C 43.383 11.738 44.375 11.001 45.501 11.001C 46.626 11.002 47.618 11.74 47.942 12.818Z"></path></g></g></g><g id="g-root-tx_memoryal_143mjo9s29ki1-stroke" data-item-order="0" data-item-id="tx_memoryal_143mjo9s29ki1" data-item-class="Label Stroke SceneTarget Indexed ColorStrokeBlack" data-item-index="3" data-renderer-id="0" transform="translate(-9, 279)"><g id="tx_memoryal_143mjo9s29ki1-stroke" fill="none" stroke-linecap="round" stroke-linejoin="round" stroke-miterlimit="1.5" stroke="#484848" stroke-width="2"><g xmlns="http://www.w3.org/2000/svg"><path d="M 25.302 16.311C 25.429 16.622 25.884 18.026 25.997 20.059M 25.853 28.152C 25.743 22.113 27.221 15.109 28.67 15.109C 30.119 15.109 30.646 27.25 32.423 28.016C 33.258 28.375 35.796 15.109 37.491 15.109C 39.022 15.109 37.681 24.379 39.814 28.152M 25.997 20.059C 26.111 22.092 25.842 25.473 25.842 27.524L 25.997 20.059ZM 44.779 24.307C 46.107 24.583 49.152 24.463 50.221 23.011C 51.558 21.196 50.268 18.817 47.247 19.508C 43.894 20.276 42.629 24.39 43.894 26.534C 44.917 28.267 47.64 29.038 51.061 26.534M 69.256 28.136C 68.758 27.708 68.467 25.757 68.467 23.936C 68.467 22.314 68.777 19.203 67.172 19.093C 65.175 18.955 62.996 26.052 62.252 28.136C 60.524 26.448 61.168 19.121 58.972 19.362C 57.254 19.55 54.837 25.23 55.074 28.136C 54.821 27.22 54.831 25.117 55.074 23.634C 55.327 22.09 54.989 20.82 54.821 20.202M 76.125 19.468C 75.279 19.693 72.905 20.951 73.063 24.041C 73.22 27.13 75.364 28.136 77.287 28.136C 79.283 28.136 81.84 26.697 81.635 23.333C 81.429 19.968 79.299 19.251 77.909 19.315C 76.263 19.389 75.16 20.554 74.707 21.311M 84.555 19.413C 84.837 20.567 85.428 24.098 85.336 28.136C 85.336 23.378 86.929 19.844 89.375 19.341M 92.203 19.325C 92.05 20.303 91.916 22.518 92.203 24.354C 92.563 26.649 94.099 27.826 95.696 26.609C 97.292 25.391 97.871 21.26 97.971 19.325C 97.711 23.136 98.11 25.232 98.31 26.708C 98.509 28.185 98.569 31.019 97.591 32.256C 96.614 33.493 93.999 33.613 92.642 32.436M 110.24 17.929C 110.374 18.18 110.526 19.252 110.11 20.841C 109.59 22.827 108.638 25.597 108.764 28.145C 109 22.873 111.596 15.1 113.968 15.1C 116.31 15.1 115.833 20.177 116.572 24.014C 117.089 26.699 117.804 28.145 117.804 28.145M 107.975 24.212C 109.506 23.652 113.685 22.575 118.159 22.753M 122.136 14.008C 121.727 17.098 121.442 23.338 121.721 25.59C 122.08 28.491 123.419 28.35 124.016 27.864M 127.186 14.008C 126.777 17.098 126.492 23.338 126.771 25.59C 127.13 28.491 128.469 28.35 129.066 27.864M 135.005 19.468C 134.159 19.693 131.785 20.951 131.943 24.041C 132.1 27.13 134.244 28.136 136.167 28.136C 138.163 28.136 140.721 26.697 140.515 23.333C 140.309 19.968 138.179 19.251 136.789 19.315C 135.143 19.389 134.04 20.554 133.587 21.311M 150.837 19.672C 150.219 19.1 146.929 19.105 145.009 21.414C 142.686 24.207 144.137 27.988 147.729 28.121C 150.108 28.209 151.006 27.078 151.315 26.741M 159.218 19.375C 155.804 19.549 153.273 25.726 155.065 27.591C 156.858 29.238 160.085 26.949 160.969 21.208C 161.442 24.975 162.599 27.59 162.959 28.053M 166.356 14.955C 166.585 16.514 166.34 17.296 165.901 20.909C 165.461 24.523 165.944 26.546 166.896 27.488C 167.849 28.43 169.462 28.217 169.999 27.657M 169.749 19.3C 169.09 19.294 167.461 19.566 166.213 20.259M 173.736 14.847C 175.044 15.612 173.381 16.866 173.556 14.941M 173.91 19.301C 173.855 21.527 173.778 26.583 173.91 28.136M 181.375 19.468C 180.529 19.693 178.155 20.951 178.313 24.041C 178.47 27.13 180.614 28.136 182.537 28.136C 184.533 28.136 187.09 26.697 186.885 23.333C 186.679 19.968 184.549 19.251 183.159 19.315C 181.513 19.389 180.41 20.554 179.957 21.311M 190.908 19.359C 190.939 20.082 190.789 21.88 190.527 23.286C 190.201 25.045 190.509 27.333 191.053 28.136C 191.053 26.924 193.83 19.359 196.189 19.359C 198.475 19.359 196.334 26.343 198.475 28.136"></path></g></g></g><g id="g-root-remo_2r47ts2nny9-stroke" data-item-order="0" data-item-id="remo_2r47ts2nny9" data-item-class="Icon Stroke SceneTarget Indexed InsideFill" data-item-index="3" data-renderer-id="0" transform="translate(423, 267)"><g id="remo_2r47ts2nny9-stroke" fill="none" stroke-linecap="round" stroke-linejoin="round" stroke-miterlimit="1.5" stroke="#4682e3" stroke-width="2"><g xmlns="http://www.w3.org/2000/svg"><path d="M 56.286 40.857L 40.857 56.286M 40.857 40.857L 56.286 56.286M 11.714 18.983C 11.714 22.997 20.157 26.251 30.571 26.251C 40.986 26.251 49.429 22.997 49.429 18.983C 49.429 14.969 40.986 11.714 30.571 11.714C 20.157 11.714 11.714 14.969 11.714 18.983M 49.429 35.714L 49.429 18.983M 11.714 18.983L 11.714 42.16C 11.714 46.171 20.08 49.394 30.571 49.429M 30.571 37.84C 20.286 37.84 11.714 34.583 11.714 30.571"></path></g></g></g><g id="g-root-tx_calculat_1cyn2u1s29mv4-stroke" data-item-order="0" data-item-id="tx_calculat_1cyn2u1s29mv4" data-item-class="Label Stroke SceneTarget Indexed ColorStrokeBlack" data-item-index="4" data-renderer-id="0" transform="translate(63, 363)"><g id="tx_calculat_1cyn2u1s29mv4-stroke" fill="none" stroke-linecap="round" stroke-linejoin="round" stroke-miterlimit="1.5" stroke="#484848" stroke-width="2"><g xmlns="http://www.w3.org/2000/svg"><path d="M 23.293 17.743C 23.451 17.143 23.499 16.067 22.312 15.498C 20.941 14.841 15.312 15.497 14.623 22.747C 13.985 29.462 22.153 29.573 23.848 26.304M 32.288 19.375C 28.874 19.549 26.343 25.726 28.135 27.591C 29.928 29.238 33.155 26.949 34.039 21.208C 34.512 24.975 35.669 27.59 36.029 28.053M 39.706 14.008C 39.297 17.098 39.012 23.338 39.291 25.59C 39.65 28.491 40.989 28.35 41.586 27.864M 51.367 19.672C 50.749 19.1 47.459 19.105 45.539 21.414C 43.216 24.207 44.667 27.988 48.259 28.121C 50.638 28.209 51.536 27.078 51.845 26.741M 56.026 19.475C 55.753 20.342 55.364 22.125 55.48 23.654C 55.626 25.558 56.972 28.639 60.192 28.066C 63.307 27.512 63.449 22.23 63.048 19.475M 67.346 14.008C 66.937 17.098 66.652 23.338 66.931 25.59C 67.29 28.491 68.629 28.35 69.226 27.864M 76.408 19.375C 72.994 19.549 70.463 25.726 72.255 27.591C 74.048 29.238 77.275 26.949 78.159 21.208C 78.632 24.975 79.789 27.59 80.149 28.053M 83.546 14.955C 83.775 16.514 83.53 17.296 83.091 20.909C 82.651 24.523 83.134 26.546 84.086 27.488C 85.039 28.43 86.652 28.217 87.189 27.657M 86.939 19.3C 86.28 19.294 84.651 19.566 83.403 20.259M 90.926 14.847C 92.234 15.612 90.571 16.866 90.746 14.941M 91.1 19.301C 91.045 21.527 90.968 26.583 91.1 28.136M 98.565 19.468C 97.719 19.693 95.345 20.951 95.503 24.041C 95.66 27.13 97.804 28.136 99.727 28.136C 101.723 28.136 104.281 26.697 104.075 23.333C 103.869 19.968 101.739 19.251 100.349 19.315C 98.703 19.389 97.6 20.554 97.147 21.311M 108.098 19.359C 108.129 20.082 107.979 21.88 107.717 23.286C 107.391 25.045 107.699 27.333 108.243 28.136C 108.243 26.924 111.02 19.359 113.379 19.359C 115.665 19.359 113.524 26.343 115.665 28.136M 125.066 19.411C 122.579 18.954 118.825 20.59 119.461 22.121C 120.373 24.313 126.759 23.498 125.949 26.083C 125.484 27.569 123.705 28.101 122.032 28.131C 120.869 28.152 120.042 28.131 119.173 27.615"></path></g></g></g><g id="g-root-1_959cexs2m7eo-stroke" data-item-order="0" data-item-id="1_959cexs2m7eo" data-item-class="Icon Stroke SceneTarget Indexed InsideFill" data-item-index="4" data-renderer-id="0" transform="translate(423, 351)"><g id="1_959cexs2m7eo-stroke" fill="none" stroke-linecap="round" stroke-linejoin="round" stroke-miterlimit="1.5" stroke="#3bc482" stroke-width="2"><g xmlns="http://www.w3.org/2000/svg"><path d="M 21.008 11L 47.008 11C 47.008 11 52.008 11 52.008 16L 52.008 52C 52.008 52 52.008 57 47.008 57L 21.008 57C 21.008 57 16.008 57 16.008 52L 16.008 16C 16.008 16 16.008 11 21.008 11M 16.008 41L 52.008 41M 16.008 27L 52.008 27M 34.008 27L 34.008 57M 21.008 35L 27.008 35M 40.008 35L 46.008 35M 40.008 51L 46.008 51M 40.008 47L 46.008 47M 24.008 32L 24.008 38M 21.008 46L 27.008 52M 27.008 46L 21.008 52M 44.01 21L 44.01 17"></path></g></g></g></g></svg>