<svg width="698" height="164" viewBox="0 0 698 164" style="fill:none;stroke:none;fill-rule:evenodd;clip-rule:evenodd;stroke-linecap:round;stroke-linejoin:round;stroke-miterlimit:1.5;" version="1.1" xmlns="http://www.w3.org/2000/svg" xmlns:xlink="http://www.w3.org/1999/xlink"><g id="blend" style="mix-blend-mode:multiply"><g id="g-root-ro_1448uhlqoh91j-fill" data-item-order="-25704" data-item-id="ro_1448uhlqoh91j" data-item-class="Shape Stroke Fill" data-item-index="none" data-renderer-id="0" transform="translate(255, 9)"><g id="ro_1448uhlqoh91j-fill" stroke="none" fill="#f0f0f0"><g xmlns="http://www.w3.org/2000/svg"><path d="M 34 10L 190 10C 190 10 214 10 214 34L 214 112C 214 112 214 136 190 136L 34 136C 34 136 10 136 10 112L 10 34C 10 34 10 10 34 10"></path></g></g></g><g id="g-root-ro_v4v2vtqod1xf-fill" data-item-order="-11664" data-item-id="ro_v4v2vtqod1xf" data-item-class="Shape Stroke Fill" data-item-index="none" data-renderer-id="0" transform="translate(-9, -9)"><g id="ro_v4v2vtqod1xf-fill" stroke="none" fill="#e9fbf3"><g xmlns="http://www.w3.org/2000/svg"><path d="M 22 10L 214 10C 214 10 226 10 226 22L 226 52C 226 52 226 64 214 64L 22 64C 22 64 10 64 10 52L 10 22C 10 22 10 10 22 10"></path></g></g></g><g id="g-root-ro_18lxv15qo603u-fill" data-item-order="-9720" data-item-id="ro_18lxv15qo603u" data-item-class="Shape Stroke Fill" data-item-index="none" data-renderer-id="0" transform="translate(507, -9)"><g id="ro_18lxv15qo603u-fill" stroke="none" fill="#e6efff"><g xmlns="http://www.w3.org/2000/svg"><path d="M 22 10L 178 10C 178 10 190 10 190 22L 190 52C 190 52 190 64 178 64L 22 64C 22 64 10 64 10 52L 10 22C 10 22 10 10 22 10"></path></g></g></g><g id="g-root-4_zkol09qod156-fill" data-item-order="0" data-item-id="4_zkol09qod156" data-item-class="Icon Stroke" data-item-index="none" data-renderer-id="0" transform="translate(165, 3)"></g><g id="g-root-1_1hhkva1qo5zb5-fill" data-item-order="0" data-item-id="1_1hhkva1qo5zb5" data-item-class="Icon Stroke" data-item-index="none" data-renderer-id="0" transform="translate(519, 3)"></g><g id="g-root-tx_hotloadi_1lwrwbdqo61oo-fill" data-item-order="0" data-item-id="tx_hotloadi_1lwrwbdqo61oo" data-item-class="Label Stroke" data-item-index="none" data-renderer-id="0" transform="translate(555, 6)"></g><g id="g-root-midn_1hfpcuxqoh7gm-fill" data-item-order="0" data-item-id="midn_1hfpcuxqoh7gm" data-item-class="Icon Stroke" data-item-index="none" data-renderer-id="0" transform="translate(333, 33)"></g><g id="g-root-tx_mechanis_1464cwpqo60w3-fill" data-item-order="0" data-item-id="tx_mechanis_1464cwpqo60w3" data-item-class="Label Stroke" data-item-index="none" data-renderer-id="0" transform="translate(39, 57)"></g><g id="g-root-tx_applicat_940b4pqo61og-fill" data-item-order="0" data-item-id="tx_applicat_940b4pqo61og" data-item-class="Label Stroke" data-item-index="none" data-renderer-id="0" transform="translate(555, 129)"></g><g id="g-root-tx_mechanis_hznbdlqo603y-fill" data-item-order="0" data-item-id="tx_mechanis_hznbdlqo603y" data-item-class="Label Stroke" data-item-index="none" data-renderer-id="0" transform="translate(555, 57)"></g><g id="g-root-tx_benefits_vahcntqo61os-fill" data-item-order="0" data-item-id="tx_benefits_vahcntqo61os" data-item-class="Label Stroke" data-item-index="none" data-renderer-id="0" transform="translate(75, 93)"></g><g id="g-root-tx_springbo_1luwdw9qoh9u5-fill" data-item-order="0" data-item-id="tx_springbo_1luwdw9qoh9u5" data-item-class="Label Stroke" data-item-index="none" data-renderer-id="0" transform="translate(279, 87)"></g><g id="g-root-tx_benefits_djtt95qo60w7-fill" data-item-order="0" data-item-id="tx_benefits_djtt95qo60w7" data-item-class="Label Stroke" data-item-index="none" data-renderer-id="0" transform="translate(555, 93)"></g><g id="g-root-tx_applicat_qvabmhqo5zb9-fill" data-item-order="0" data-item-id="tx_applicat_qvabmhqo5zb9" data-item-class="Label Stroke" data-item-index="none" data-renderer-id="0" transform="translate(39, 129)"></g><g id="g-root-tx_hotdeplo_18gbl95qod0ch-fill" data-item-order="0" data-item-id="tx_hotdeplo_18gbl95qod0ch" data-item-class="Label Stroke" data-item-index="none" data-renderer-id="0" transform="translate(3, 6)"></g><g id="g-root-ro_1448uhlqoh91j-stroke" data-item-order="-25704" data-item-id="ro_1448uhlqoh91j" data-item-class="Shape Stroke Fill" data-item-index="none" data-renderer-id="0" transform="translate(255, 9)"><g id="ro_1448uhlqoh91j-stroke" fill="none" stroke-linecap="round" stroke-linejoin="round" stroke-miterlimit="1.5" stroke="#484848" stroke-width="2"><g xmlns="http://www.w3.org/2000/svg"><path d="M 34 10L 190 10C 190 10 214 10 214 34L 214 112C 214 112 214 136 190 136L 34 136C 34 136 10 136 10 112L 10 34C 10 34 10 10 34 10"></path></g></g></g><g id="g-root-ro_v4v2vtqod1xf-stroke" data-item-order="-11664" data-item-id="ro_v4v2vtqod1xf" data-item-class="Shape Stroke Fill" data-item-index="none" data-renderer-id="0" transform="translate(-9, -9)"><g id="ro_v4v2vtqod1xf-stroke" fill="none" stroke-linecap="round" stroke-linejoin="round" stroke-miterlimit="1.5" stroke="#3bc482" stroke-width="2"><g xmlns="http://www.w3.org/2000/svg"><path d="M 22 10L 214 10C 214 10 226 10 226 22L 226 52C 226 52 226 64 214 64L 22 64C 22 64 10 64 10 52L 10 22C 10 22 10 10 22 10"></path></g></g></g><g id="g-root-ro_18lxv15qo603u-stroke" data-item-order="-9720" data-item-id="ro_18lxv15qo603u" data-item-class="Shape Stroke Fill" data-item-index="none" data-renderer-id="0" transform="translate(507, -9)"><g id="ro_18lxv15qo603u-stroke" fill="none" stroke-linecap="round" stroke-linejoin="round" stroke-miterlimit="1.5" stroke="#4682e3" stroke-width="2"><g xmlns="http://www.w3.org/2000/svg"><path d="M 22 10L 178 10C 178 10 190 10 190 22L 190 52C 190 52 190 64 178 64L 22 64C 22 64 10 64 10 52L 10 22C 10 22 10 10 22 10"></path></g></g></g><g id="g-root-4_zkol09qod156-stroke" data-item-order="0" data-item-id="4_zkol09qod156" data-item-class="Icon Stroke" data-item-index="none" data-renderer-id="0" transform="translate(165, 3)"><g id="4_zkol09qod156-stroke" fill="none" stroke-linecap="round" stroke-linejoin="round" stroke-miterlimit="1.5" stroke="#3bc482" stroke-width="2"><g xmlns="http://www.w3.org/2000/svg"><path d="M 16.767 16.875L 22.6 24.116C 23.088 24.604 23.088 25.396 22.6 25.884L 16.767 33.125M 39.009 24.116C 39.497 24.604 39.497 25.396 39.009 25.884L 32.759 32.759C 32.524 32.993 32.206 33.125 31.875 33.125L 24.898 33.125L 32.139 25.884C 32.627 25.396 32.627 24.604 32.139 24.116L 24.898 16.875L 31.875 16.875C 32.206 16.875 32.524 17.007 32.759 17.241ZM 21.875 16.875L 16.767 16.875M 21.875 33.125L 16.767 33.125M 13.75 16.875L 10.625 16.875M 13.75 33.125L 10.625 33.125"></path></g></g></g><g id="g-root-1_1hhkva1qo5zb5-stroke" data-item-order="0" data-item-id="1_1hhkva1qo5zb5" data-item-class="Icon Stroke" data-item-index="none" data-renderer-id="0" transform="translate(519, 3)"><g id="1_1hhkva1qo5zb5-stroke" fill="none" stroke-linecap="round" stroke-linejoin="round" stroke-miterlimit="1.5" stroke="#4682e3" stroke-width="2"><g xmlns="http://www.w3.org/2000/svg"><path d="M 11.071 20.714L 16.429 15.357L 21.786 20.714M 22.857 38.929L 18.571 38.929C 17.388 38.929 16.429 37.969 16.429 36.786L 16.429 15.357M 38.929 29.286L 33.571 34.643L 28.214 29.286M 27.143 11.071L 31.429 11.071C 32.612 11.071 33.571 12.031 33.571 13.214L 33.571 34.643"></path></g></g></g><path id="cu_m982mxqod2q4" d="M73 58 L 70 58 L 69.9 58 A18.7 26 -35.1 0 1 56.6 53.4 A7.9 23.3 -13.8 0 1 49 41.5 A7.9 23.3 -13.8 0 0 41.4 29.6 A18.7 26 -35.1 0 0 28.1 25 L 28 25 L 25 25" transform="translate(192, 3)" style="fill:none;stroke-linecap:round;stroke-linejoin:round;stroke-miterlimit:1.5;stroke:#bbbbbb;stroke-width:2;stroke-dasharray:5, 7"></path><path id="cu_hu11llqod0cn" d="M25 58 L 28 58 L 28.1 58 A18.7 26 35.1 0 0 41.4 53.4 A7.9 23.3 13.8 0 0 49 41.5 A7.9 23.3 13.8 0 1 56.6 29.6 A18.7 26 35.1 0 1 69.9 25 L 70 25 L 73 25" transform="translate(444, 3)" style="fill:none;stroke-linecap:round;stroke-linejoin:round;stroke-miterlimit:1.5;stroke:#bbbbbb;stroke-width:2;stroke-dasharray:5, 7"></path><g id="g-root-tx_hotloadi_1lwrwbdqo61oo-stroke" data-item-order="0" data-item-id="tx_hotloadi_1lwrwbdqo61oo" data-item-class="Label Stroke" data-item-index="none" data-renderer-id="0" transform="translate(555, 6)"><g id="tx_hotloadi_1lwrwbdqo61oo-stroke" fill="none" stroke-linecap="square" stroke-linejoin="miter" stroke-miterlimit="4" stroke="#4682e3" stroke-width="2"><g xmlns="http://www.w3.org/2000/svg"><path d="M 15.254 14.938L 15.254 28.128M 24.767 14.938L 24.767 28.128M 15.762 21.313L 24.287 21.313M 37.707 23.457C 37.707 26.522 35.836 28.34 33.528 28.34C 31.22 28.34 29.349 26.522 29.349 23.457C 29.349 20.392 31.22 18.573 33.528 18.573C 35.836 18.573 37.707 20.392 37.707 23.457ZM 44.869 28.326C 43.46 28.465 42.602 27.732 42.602 26.387L 42.602 16.081M 44.752 18.642L 42.988 18.642M 40.492 18.642L 42.225 18.642M 62.307 28.145L 55.158 28.145L 55.116 21.3L 55.116 14.938M 73.887 23.457C 73.887 26.522 72.016 28.34 69.708 28.34C 67.4 28.34 65.529 26.522 65.529 23.457C 65.529 20.392 67.4 18.573 69.708 18.573C 72.016 18.573 73.887 20.392 73.887 23.457ZM 78.198 20.246C 78.562 19.28 79.978 18.567 81.318 18.567C 83.172 18.567 84.674 19.88 84.674 21.499L 84.68 22.957L 84.68 25.571C 84.68 26.614 84.655 27.353 84.956 28.278M 84.3 22.957L 81.572 22.957C 79.069 22.957 77.769 24.343 77.769 25.837C 77.769 27.331 79.007 28.341 80.623 28.341C 82.605 28.341 84.231 26.888 84.631 25.732M 96.51 28.124L 96.51 14.123M 96.15 26.773C 95.288 27.871 94.19 28.34 92.88 28.34C 90.699 28.34 89.047 27.029 89.047 23.458C 89.047 19.886 90.804 18.575 92.986 18.575C 94.255 18.575 95.465 19.114 96.15 20.175M 101.538 14.971L 101.562 14.971M 101.522 18.804L 101.522 28.145M 106.449 18.78L 106.449 28.128M 113.283 28.128L 113.283 22.074C 113.283 21.362 113.379 18.79 110.996 18.587C 109.238 18.437 107.549 19.562 106.773 20.956M 125.069 18.652L 125.069 28.654C 125.069 33.351 119.776 33.001 118.341 31.47M 124.735 26.573C 124.055 27.661 122.831 28.214 121.545 28.214C 119.364 28.214 117.607 26.903 117.607 23.331C 117.607 19.76 119.258 18.449 121.44 18.449C 122.708 18.449 124.013 19.129 124.735 20.502"></path></g></g></g><path id="cu_2r13tqod2px" d="M43 25 L 43 55 L 43 85 L 34 85 L 25 85" transform="translate(150, 30)" style="fill:none;stroke-linecap:round;stroke-linejoin:round;stroke-miterlimit:1.5;stroke:#bbbbbb;stroke-width:2;stroke-dasharray:5, 7"></path><g id="g-root-midn_1hfpcuxqoh7gm-stroke" data-item-order="0" data-item-id="midn_1hfpcuxqoh7gm" data-item-class="Icon Stroke" data-item-index="none" data-renderer-id="0" transform="translate(333, 33)"><g id="midn_1hfpcuxqoh7gm-stroke" fill="none" stroke-linecap="round" stroke-linejoin="round" stroke-miterlimit="1.5" stroke="#484848" stroke-width="2"><g xmlns="http://www.w3.org/2000/svg"><path d="M 16.857 34L 11.714 34M 21.863 21.863L 18.229 18.229M 21.863 46.137L 18.229 49.771M 51.143 34L 56.286 34M 46.137 46.137L 49.771 49.771M 34 51.143L 34 56.286M 46.137 21.863L 49.771 18.229M 34 16.857L 34 11.714"></path></g></g></g><g id="g-root-tx_mechanis_1464cwpqo60w3-stroke" data-item-order="0" data-item-id="tx_mechanis_1464cwpqo60w3" data-item-class="Label Stroke" data-item-index="none" data-renderer-id="0" transform="translate(39, 57)"><g id="tx_mechanis_1464cwpqo60w3-stroke" fill="none" stroke-linecap="square" stroke-linejoin="miter" stroke-miterlimit="4" stroke="#484848" stroke-width="2"><g xmlns="http://www.w3.org/2000/svg"><path d="M 18.021 28.117L 18.029 14.978L 18.998 14.978L 24.301 28.115L 24.617 28.115L 29.936 14.978L 30.906 14.978L 30.9 28.117M 42.647 27.218C 41.674 28.155 40.649 28.339 39.464 28.339C 37.395 28.339 35.532 27.028 35.532 23.456C 35.532 19.884 37.341 18.573 39.41 18.573C 41.478 18.573 43.082 19.63 43.082 23.201L 35.862 23.201M 53.942 26.254C 53.57 27.649 52.002 28.339 50.533 28.339C 48.396 28.339 46.63 27.028 46.63 23.456C 46.63 19.884 48.499 18.573 50.637 18.573C 52.144 18.573 53.794 19.41 54.027 20.915M 58.098 14.086L 58.098 28.128M 64.962 28.128L 64.962 22.074C 64.962 21.362 65.058 18.791 62.665 18.587C 60.911 18.439 59.226 19.547 58.439 20.928M 69.798 20.246C 70.162 19.28 71.578 18.567 72.918 18.567C 74.772 18.567 76.274 19.88 76.274 21.499L 76.28 22.957L 76.28 25.571C 76.28 26.614 76.255 27.353 76.556 28.278M 75.9 22.957L 73.172 22.957C 70.669 22.957 69.369 24.343 69.369 25.837C 69.369 27.331 70.607 28.341 72.223 28.341C 74.205 28.341 75.831 26.888 76.231 25.732M 81.109 18.78L 81.109 28.128M 87.943 28.128L 87.943 22.074C 87.943 21.362 88.039 18.79 85.656 18.587C 83.898 18.437 82.209 19.562 81.433 20.956M 92.898 14.971L 92.922 14.971M 92.882 18.804L 92.882 28.145M 103.968 20.381C 103.672 19.404 102.518 18.584 100.908 18.584C 99.02 18.584 97.8 19.447 97.709 20.751C 97.604 22.246 98.838 22.822 100.768 23.339C 102.462 23.797 104.405 24.277 104.251 26.122C 104.152 27.31 103.175 28.346 100.818 28.346C 98.912 28.346 97.835 27.53 97.5 26.424M 108.64 18.814L 108.64 28.162M 115.474 28.162L 115.463 21.47C 115.399 20.526 115.032 19.078 113.158 18.649C 111.218 18.205 109.738 19.248 109.002 20.595M 122.309 28.162L 122.309 22.108C 122.309 21.396 122.424 19.206 119.993 18.649C 117.964 18.184 116.429 19.347 115.729 20.783"></path></g></g></g><path id="cu_de7jh5qod14y" d="M43 25 L 43 37 L 43 49 L 34 49 L 25 49" transform="translate(150, 30)" style="fill:none;stroke-linecap:round;stroke-linejoin:round;stroke-miterlimit:1.5;stroke:#bbbbbb;stroke-width:2;stroke-dasharray:5, 7"></path><path id="cu_2r13tqod2pz" d="M43 25 L 43 37 L 43 109 A12 12 61 0 1 31 121 L 30.9 121 L 25 121" transform="translate(150, 30)" style="fill:none;stroke-linecap:round;stroke-linejoin:round;stroke-miterlimit:1.5;stroke:#bbbbbb;stroke-width:2;stroke-dasharray:5, 7"></path><path id="cu_1uoo21lqod05d" d="M25 25 L 25 37 L 25 49 L 34 49 L 43 49" transform="translate(516, 30)" style="fill:none;stroke-linecap:round;stroke-linejoin:round;stroke-miterlimit:1.5;stroke:#bbbbbb;stroke-width:2;stroke-dasharray:5, 7"></path><path id="cu_1lt11spqod0y4" d="M25 25 L 25 55 L 25 85 L 34 85 L 43 85" transform="translate(516, 30)" style="fill:none;stroke-linecap:round;stroke-linejoin:round;stroke-miterlimit:1.5;stroke:#bbbbbb;stroke-width:2;stroke-dasharray:5, 7"></path><path id="cu_1hd7jo9qod1qe" d="M25 25 L 25 37 L 25 109 A12 12 45 0 0 37 121 L 37.1 121 L 43 121" transform="translate(516, 30)" style="fill:none;stroke-linecap:round;stroke-linejoin:round;stroke-miterlimit:1.5;stroke:#bbbbbb;stroke-width:2;stroke-dasharray:5, 7"></path><g id="g-root-tx_applicat_940b4pqo61og-stroke" data-item-order="0" data-item-id="tx_applicat_940b4pqo61og" data-item-class="Label Stroke" data-item-index="none" data-renderer-id="0" transform="translate(555, 129)"><g id="tx_applicat_940b4pqo61og-stroke" fill="none" stroke-linecap="square" stroke-linejoin="miter" stroke-miterlimit="4" stroke="#484848" stroke-width="2"><g xmlns="http://www.w3.org/2000/svg"><path d="M 13.529 28.145L 18.477 14.973L 19.065 14.973L 24.029 28.145M 15.346 24.294L 22.205 24.294M 27.998 18.774L 27.998 32.393M 28.364 20.124C 29.247 19.027 30.428 18.558 31.737 18.558C 33.918 18.558 35.497 19.904 35.497 23.476C 35.497 27.047 33.813 28.323 31.631 28.323C 30.36 28.323 29.074 27.783 28.364 26.719M 39.768 18.774L 39.768 32.393M 40.134 20.124C 41.017 19.027 42.198 18.558 43.507 18.558C 45.688 18.558 47.267 19.904 47.267 23.476C 47.267 27.047 45.583 28.323 43.401 28.323C 42.13 28.323 40.844 27.783 40.134 26.719M 51.681 14.125L 51.681 28.126M 56.773 14.971L 56.797 14.971M 56.757 18.804L 56.757 28.145M 68.497 26.254C 68.125 27.649 66.557 28.339 65.088 28.339C 62.951 28.339 61.185 27.028 61.185 23.456C 61.185 19.884 63.054 18.573 65.192 18.573C 66.699 18.573 68.349 19.41 68.582 20.915M 72.783 20.246C 73.147 19.28 74.563 18.567 75.903 18.567C 77.757 18.567 79.259 19.88 79.259 21.499L 79.265 22.957L 79.265 25.571C 79.265 26.614 79.24 27.353 79.542 28.278M 78.885 22.957L 76.157 22.957C 73.654 22.957 72.354 24.343 72.354 25.837C 72.354 27.331 73.592 28.341 75.208 28.341C 77.19 28.341 78.816 26.888 79.216 25.732M 87.064 28.326C 85.655 28.465 84.797 27.732 84.797 26.387L 84.797 16.081M 86.947 18.642L 85.183 18.642M 82.687 18.642L 84.42 18.642M 91.153 14.971L 91.177 14.971M 91.137 18.804L 91.137 28.145M 103.862 23.457C 103.862 26.522 101.991 28.34 99.683 28.34C 97.375 28.34 95.504 26.522 95.504 23.457C 95.504 20.392 97.375 18.573 99.683 18.573C 101.991 18.573 103.862 20.392 103.862 23.457ZM 108.054 18.78L 108.054 28.128M 114.888 28.128L 114.888 22.074C 114.888 21.362 114.984 18.79 112.601 18.587C 110.843 18.437 109.154 19.562 108.378 20.956M 125.823 20.381C 125.527 19.404 124.373 18.584 122.763 18.584C 120.875 18.584 119.655 19.447 119.564 20.751C 119.459 22.246 120.693 22.822 122.623 23.339C 124.317 23.797 126.26 24.277 126.106 26.122C 126.007 27.31 125.03 28.346 122.673 28.346C 120.767 28.346 119.69 27.53 119.355 26.424"></path></g></g></g><g id="g-root-tx_mechanis_hznbdlqo603y-stroke" data-item-order="0" data-item-id="tx_mechanis_hznbdlqo603y" data-item-class="Label Stroke" data-item-index="none" data-renderer-id="0" transform="translate(555, 57)"><g id="tx_mechanis_hznbdlqo603y-stroke" fill="none" stroke-linecap="square" stroke-linejoin="miter" stroke-miterlimit="4" stroke="#484848" stroke-width="2"><g xmlns="http://www.w3.org/2000/svg"><path d="M 18.021 28.117L 18.029 14.978L 18.998 14.978L 24.301 28.115L 24.617 28.115L 29.936 14.978L 30.906 14.978L 30.9 28.117M 42.647 27.218C 41.674 28.155 40.649 28.339 39.464 28.339C 37.395 28.339 35.532 27.028 35.532 23.456C 35.532 19.884 37.341 18.573 39.41 18.573C 41.478 18.573 43.082 19.63 43.082 23.201L 35.862 23.201M 53.942 26.254C 53.57 27.649 52.002 28.339 50.533 28.339C 48.396 28.339 46.63 27.028 46.63 23.456C 46.63 19.884 48.499 18.573 50.637 18.573C 52.144 18.573 53.794 19.41 54.027 20.915M 58.098 14.086L 58.098 28.128M 64.962 28.128L 64.962 22.074C 64.962 21.362 65.058 18.791 62.665 18.587C 60.911 18.439 59.226 19.547 58.439 20.928M 69.798 20.246C 70.162 19.28 71.578 18.567 72.918 18.567C 74.772 18.567 76.274 19.88 76.274 21.499L 76.28 22.957L 76.28 25.571C 76.28 26.614 76.255 27.353 76.556 28.278M 75.9 22.957L 73.172 22.957C 70.669 22.957 69.369 24.343 69.369 25.837C 69.369 27.331 70.607 28.341 72.223 28.341C 74.205 28.341 75.831 26.888 76.231 25.732M 81.109 18.78L 81.109 28.128M 87.943 28.128L 87.943 22.074C 87.943 21.362 88.039 18.79 85.656 18.587C 83.898 18.437 82.209 19.562 81.433 20.956M 92.898 14.971L 92.922 14.971M 92.882 18.804L 92.882 28.145M 103.968 20.381C 103.672 19.404 102.518 18.584 100.908 18.584C 99.02 18.584 97.8 19.447 97.709 20.751C 97.604 22.246 98.838 22.822 100.768 23.339C 102.462 23.797 104.405 24.277 104.251 26.122C 104.152 27.31 103.175 28.346 100.818 28.346C 98.912 28.346 97.835 27.53 97.5 26.424M 108.64 18.814L 108.64 28.162M 115.474 28.162L 115.463 21.47C 115.399 20.526 115.032 19.078 113.158 18.649C 111.218 18.205 109.738 19.248 109.002 20.595M 122.309 28.162L 122.309 22.108C 122.309 21.396 122.424 19.206 119.993 18.649C 117.964 18.184 116.429 19.347 115.729 20.783"></path></g></g></g><g id="g-root-tx_benefits_vahcntqo61os-stroke" data-item-order="0" data-item-id="tx_benefits_vahcntqo61os" data-item-class="Label Stroke" data-item-index="none" data-renderer-id="0" transform="translate(75, 93)"><g id="tx_benefits_vahcntqo61os-stroke" fill="none" stroke-linecap="square" stroke-linejoin="miter" stroke-miterlimit="4" stroke="#484848" stroke-width="2"><g xmlns="http://www.w3.org/2000/svg"><path d="M 16.344 28.18L 16.344 14.945M 16.787 21.18L 20.991 21.18M 16.787 14.945L 20.937 14.945C 22.687 14.945 24 15.602 24 18.008C 24 19.933 22.213 20.924 21.32 21.18C 22.359 21.253 24.437 22.066 24.437 24.734C 24.437 27.403 22.359 28.143 21.32 28.18L 16.787 28.18M 35.687 27.218C 34.714 28.155 33.689 28.339 32.504 28.339C 30.435 28.339 28.572 27.028 28.572 23.456C 28.572 19.884 30.381 18.573 32.45 18.573C 34.518 18.573 36.122 19.63 36.122 23.201L 28.902 23.201M 40.169 18.78L 40.169 28.128M 47.003 28.128L 47.003 22.074C 47.003 21.362 47.099 18.79 44.716 18.587C 42.958 18.437 41.269 19.562 40.493 20.956M 58.427 27.218C 57.454 28.155 56.429 28.339 55.244 28.339C 53.175 28.339 51.312 27.028 51.312 23.456C 51.312 19.884 53.121 18.573 55.19 18.573C 57.258 18.573 58.862 19.63 58.862 23.201L 51.642 23.201M 67.024 13.926C 66.856 13.908 66.575 13.907 66.447 13.907C 64.868 13.907 63.87 15.035 63.87 16.425L 63.87 28.129M 66.295 18.664L 64.206 18.664M 62.018 18.664L 63.544 18.664M 70.168 14.971L 70.192 14.971M 70.152 18.804L 70.152 28.145M 78.049 28.326C 76.64 28.465 75.782 27.732 75.782 26.387L 75.782 16.081M 77.932 18.642L 76.168 18.642M 73.672 18.642L 75.405 18.642M 88.118 20.381C 87.822 19.404 86.668 18.584 85.058 18.584C 83.17 18.584 81.95 19.447 81.859 20.751C 81.754 22.246 82.988 22.822 84.918 23.339C 86.612 23.797 88.555 24.277 88.401 26.122C 88.302 27.31 87.325 28.346 84.968 28.346C 83.062 28.346 81.985 27.53 81.65 26.424"></path></g></g></g><g id="g-root-tx_springbo_1luwdw9qoh9u5-stroke" data-item-order="0" data-item-id="tx_springbo_1luwdw9qoh9u5" data-item-class="Label Stroke" data-item-index="none" data-renderer-id="0" transform="translate(279, 87)"><g id="tx_springbo_1luwdw9qoh9u5-stroke" fill="none" stroke-linecap="square" stroke-linejoin="miter" stroke-miterlimit="4" stroke="#484848" stroke-width="2"><g xmlns="http://www.w3.org/2000/svg"><path d="M 25.721 17.457C 25.29 15.893 23.67 14.732 21.581 14.732C 19.133 14.732 17.432 15.931 17.432 17.754C 17.432 19.724 18.896 20.685 21.401 21.406C 23.597 22.045 25.834 22.813 25.834 25.288C 25.834 26.951 24.522 28.346 21.465 28.346C 18.993 28.346 17.412 27.106 17.048 25.483M 29.988 18.774L 29.988 32.393M 30.354 20.124C 31.237 19.027 32.418 18.558 33.727 18.558C 35.908 18.558 37.487 19.904 37.487 23.476C 37.487 27.047 35.803 28.323 33.621 28.323C 32.35 28.323 31.064 27.783 30.354 26.719M 45.37 18.609C 43.989 18.419 42.741 19.319 42.099 20.619M 41.744 18.773L 41.744 28.123M 49.053 14.971L 49.077 14.971M 49.037 18.804L 49.037 28.145M 53.964 18.78L 53.964 28.128M 60.798 28.128L 60.798 22.074C 60.798 21.362 60.894 18.79 58.511 18.587C 56.753 18.437 55.064 19.562 54.288 20.956M 72.584 18.652L 72.584 28.654C 72.584 33.351 67.291 33.001 65.856 31.47M 72.25 26.573C 71.57 27.661 70.346 28.214 69.06 28.214C 66.879 28.214 65.122 26.903 65.122 23.331C 65.122 19.76 66.773 18.449 68.955 18.449C 70.223 18.449 71.528 19.129 72.25 20.502M 77.699 28.18L 77.699 14.945M 78.142 21.18L 82.346 21.18M 78.142 14.945L 82.292 14.945C 84.042 14.945 85.355 15.602 85.355 18.008C 85.355 19.933 83.568 20.924 82.675 21.18C 83.714 21.253 85.792 22.066 85.792 24.734C 85.792 27.403 83.714 28.143 82.675 28.18L 78.142 28.18M 98.192 23.457C 98.192 26.522 96.321 28.34 94.013 28.34C 91.705 28.34 89.834 26.522 89.834 23.457C 89.834 20.392 91.705 18.573 94.013 18.573C 96.321 18.573 98.192 20.392 98.192 23.457ZM 110.182 23.457C 110.182 26.522 108.311 28.34 106.003 28.34C 103.695 28.34 101.824 26.522 101.824 23.457C 101.824 20.392 103.695 18.573 106.003 18.573C 108.311 18.573 110.182 20.392 110.182 23.457ZM 117.344 28.326C 115.935 28.465 115.077 27.732 115.077 26.387L 115.077 16.081M 117.227 18.642L 115.463 18.642M 112.967 18.642L 114.7 18.642"></path></g></g></g><g id="g-root-tx_benefits_djtt95qo60w7-stroke" data-item-order="0" data-item-id="tx_benefits_djtt95qo60w7" data-item-class="Label Stroke" data-item-index="none" data-renderer-id="0" transform="translate(555, 93)"><g id="tx_benefits_djtt95qo60w7-stroke" fill="none" stroke-linecap="square" stroke-linejoin="miter" stroke-miterlimit="4" stroke="#484848" stroke-width="2"><g xmlns="http://www.w3.org/2000/svg"><path d="M 16.344 28.18L 16.344 14.945M 16.787 21.18L 20.991 21.18M 16.787 14.945L 20.937 14.945C 22.687 14.945 24 15.602 24 18.008C 24 19.933 22.213 20.924 21.32 21.18C 22.359 21.253 24.437 22.066 24.437 24.734C 24.437 27.403 22.359 28.143 21.32 28.18L 16.787 28.18M 35.687 27.218C 34.714 28.155 33.689 28.339 32.504 28.339C 30.435 28.339 28.572 27.028 28.572 23.456C 28.572 19.884 30.381 18.573 32.45 18.573C 34.518 18.573 36.122 19.63 36.122 23.201L 28.902 23.201M 40.169 18.78L 40.169 28.128M 47.003 28.128L 47.003 22.074C 47.003 21.362 47.099 18.79 44.716 18.587C 42.958 18.437 41.269 19.562 40.493 20.956M 58.427 27.218C 57.454 28.155 56.429 28.339 55.244 28.339C 53.175 28.339 51.312 27.028 51.312 23.456C 51.312 19.884 53.121 18.573 55.19 18.573C 57.258 18.573 58.862 19.63 58.862 23.201L 51.642 23.201M 67.024 13.926C 66.856 13.908 66.575 13.907 66.447 13.907C 64.868 13.907 63.87 15.035 63.87 16.425L 63.87 28.129M 66.295 18.664L 64.206 18.664M 62.018 18.664L 63.544 18.664M 70.168 14.971L 70.192 14.971M 70.152 18.804L 70.152 28.145M 78.049 28.326C 76.64 28.465 75.782 27.732 75.782 26.387L 75.782 16.081M 77.932 18.642L 76.168 18.642M 73.672 18.642L 75.405 18.642M 88.118 20.381C 87.822 19.404 86.668 18.584 85.058 18.584C 83.17 18.584 81.95 19.447 81.859 20.751C 81.754 22.246 82.988 22.822 84.918 23.339C 86.612 23.797 88.555 24.277 88.401 26.122C 88.302 27.31 87.325 28.346 84.968 28.346C 83.062 28.346 81.985 27.53 81.65 26.424"></path></g></g></g><g id="g-root-tx_applicat_qvabmhqo5zb9-stroke" data-item-order="0" data-item-id="tx_applicat_qvabmhqo5zb9" data-item-class="Label Stroke" data-item-index="none" data-renderer-id="0" transform="translate(39, 129)"><g id="tx_applicat_qvabmhqo5zb9-stroke" fill="none" stroke-linecap="square" stroke-linejoin="miter" stroke-miterlimit="4" stroke="#484848" stroke-width="2"><g xmlns="http://www.w3.org/2000/svg"><path d="M 13.529 28.145L 18.477 14.973L 19.065 14.973L 24.029 28.145M 15.346 24.294L 22.205 24.294M 27.998 18.774L 27.998 32.393M 28.364 20.124C 29.247 19.027 30.428 18.558 31.737 18.558C 33.918 18.558 35.497 19.904 35.497 23.476C 35.497 27.047 33.813 28.323 31.631 28.323C 30.36 28.323 29.074 27.783 28.364 26.719M 39.768 18.774L 39.768 32.393M 40.134 20.124C 41.017 19.027 42.198 18.558 43.507 18.558C 45.688 18.558 47.267 19.904 47.267 23.476C 47.267 27.047 45.583 28.323 43.401 28.323C 42.13 28.323 40.844 27.783 40.134 26.719M 51.681 14.125L 51.681 28.126M 56.773 14.971L 56.797 14.971M 56.757 18.804L 56.757 28.145M 68.497 26.254C 68.125 27.649 66.557 28.339 65.088 28.339C 62.951 28.339 61.185 27.028 61.185 23.456C 61.185 19.884 63.054 18.573 65.192 18.573C 66.699 18.573 68.349 19.41 68.582 20.915M 72.783 20.246C 73.147 19.28 74.563 18.567 75.903 18.567C 77.757 18.567 79.259 19.88 79.259 21.499L 79.265 22.957L 79.265 25.571C 79.265 26.614 79.24 27.353 79.542 28.278M 78.885 22.957L 76.157 22.957C 73.654 22.957 72.354 24.343 72.354 25.837C 72.354 27.331 73.592 28.341 75.208 28.341C 77.19 28.341 78.816 26.888 79.216 25.732M 87.064 28.326C 85.655 28.465 84.797 27.732 84.797 26.387L 84.797 16.081M 86.947 18.642L 85.183 18.642M 82.687 18.642L 84.42 18.642M 91.153 14.971L 91.177 14.971M 91.137 18.804L 91.137 28.145M 103.862 23.457C 103.862 26.522 101.991 28.34 99.683 28.34C 97.375 28.34 95.504 26.522 95.504 23.457C 95.504 20.392 97.375 18.573 99.683 18.573C 101.991 18.573 103.862 20.392 103.862 23.457ZM 108.054 18.78L 108.054 28.128M 114.888 28.128L 114.888 22.074C 114.888 21.362 114.984 18.79 112.601 18.587C 110.843 18.437 109.154 19.562 108.378 20.956M 125.823 20.381C 125.527 19.404 124.373 18.584 122.763 18.584C 120.875 18.584 119.655 19.447 119.564 20.751C 119.459 22.246 120.693 22.822 122.623 23.339C 124.317 23.797 126.26 24.277 126.106 26.122C 126.007 27.31 125.03 28.346 122.673 28.346C 120.767 28.346 119.69 27.53 119.355 26.424"></path></g></g></g><g id="g-root-tx_hotdeplo_18gbl95qod0ch-stroke" data-item-order="0" data-item-id="tx_hotdeplo_18gbl95qod0ch" data-item-class="Label Stroke" data-item-index="none" data-renderer-id="0" transform="translate(3, 6)"><g id="tx_hotdeplo_18gbl95qod0ch-stroke" fill="none" stroke-linecap="square" stroke-linejoin="miter" stroke-miterlimit="4" stroke="#3bc482" stroke-width="2"><g xmlns="http://www.w3.org/2000/svg"><path d="M 14.894 14.938L 14.894 28.128M 24.407 14.938L 24.407 28.128M 15.402 21.313L 23.927 21.313M 37.347 23.457C 37.347 26.522 35.476 28.34 33.168 28.34C 30.86 28.34 28.989 26.522 28.989 23.457C 28.989 20.392 30.86 18.573 33.168 18.573C 35.476 18.573 37.347 20.392 37.347 23.457ZM 44.509 28.326C 43.1 28.465 42.242 27.732 42.242 26.387L 42.242 16.081M 44.392 18.642L 42.628 18.642M 40.132 18.642L 41.865 18.642M 58.777 28.18L 54.768 28.183L 54.768 14.948C 55.715 14.948 56.994 14.946 58.394 14.946C 59.847 14.91 63.627 16.173 63.627 21.511C 63.627 26.848 60.102 28.18 58.777 28.18ZM 74.847 27.218C 73.874 28.155 72.849 28.339 71.664 28.339C 69.595 28.339 67.731 27.028 67.731 23.456C 67.731 19.884 69.541 18.573 71.61 18.573C 73.678 18.573 75.282 19.63 75.282 23.201L 68.062 23.201M 79.323 18.774L 79.323 32.393M 79.689 20.124C 80.572 19.027 81.753 18.558 83.062 18.558C 85.243 18.558 86.822 19.904 86.822 23.476C 86.822 27.047 85.138 28.323 82.956 28.323C 81.685 28.323 80.399 27.783 79.689 26.719M 91.236 14.125L 91.236 28.126M 103.947 23.457C 103.947 26.522 102.076 28.34 99.768 28.34C 97.46 28.34 95.589 26.522 95.589 23.457C 95.589 20.392 97.46 18.573 99.768 18.573C 102.076 18.573 103.947 20.392 103.947 23.457ZM 107.489 32.437C 109.043 32.683 109.965 31.233 110.322 30.286L 114.173 18.691M 107.313 18.691L 110.654 28.1M 118.12 18.814L 118.12 28.162M 124.954 28.162L 124.943 21.47C 124.879 20.526 124.512 19.078 122.638 18.649C 120.698 18.205 119.218 19.248 118.482 20.595M 131.789 28.162L 131.789 22.108C 131.789 21.396 131.904 19.206 129.473 18.649C 127.444 18.184 125.91 19.347 125.209 20.783M 143.217 27.218C 142.244 28.155 141.219 28.339 140.034 28.339C 137.965 28.339 136.102 27.028 136.102 23.456C 136.102 19.884 137.911 18.573 139.98 18.573C 142.048 18.573 143.652 19.63 143.652 23.201L 136.432 23.201M 147.699 18.78L 147.699 28.128M 154.533 28.128L 154.533 22.074C 154.533 21.362 154.629 18.79 152.246 18.587C 150.488 18.437 148.799 19.562 148.023 20.956M 162.279 28.326C 160.87 28.465 160.012 27.732 160.012 26.387L 160.012 16.081M 162.162 18.642L 160.398 18.642M 157.902 18.642L 159.635 18.642"></path></g></g></g></g></svg>